<svg width="375" height="375" viewBox="0 0 375 375" fill="none" xmlns="http://www.w3.org/2000/svg">
<path d="M19.642 120.304C21.9209 114.083 25.2196 109.796 29.5379 107.442C33.8717 105.045 38.7895 104.855 44.2912 106.87C49.4966 108.777 52.9992 111.86 54.7989 116.119C56.6141 120.336 56.483 125.28 54.4056 130.951C53.7234 132.813 52.8664 134.563 51.8344 136.201C50.8178 137.797 49.4931 139.448 47.8603 141.153L61.1278 146.014L57.407 156.171L31.1259 146.543C25.1587 144.357 21.1716 141.025 19.1644 136.545C17.1728 132.024 17.332 126.61 19.642 120.304ZM46.0098 129.892C47.1105 126.887 47.1937 124.301 46.2592 122.135C45.3403 119.926 43.4843 118.311 40.6911 117.287C37.8556 116.249 35.3527 116.268 33.1822 117.345C31.0272 118.379 29.4226 120.335 28.3684 123.213C27.2677 126.218 27.2748 128.885 28.3898 131.213C29.5203 133.499 31.6515 135.216 34.7832 136.363L39.7347 138.177C41.0885 137.233 42.3139 136.05 43.4109 134.628C44.5234 133.163 45.3897 131.584 46.0098 129.892Z" fill="#D9D9D9"/>
<path d="M68.8301 64.4529L97.2697 87.1273L90.99 95.0036L87.7126 92.3906C88.5498 96.4014 87.4231 100.345 84.3324 104.222C82.197 106.9 79.6593 108.854 76.719 110.084C73.8069 111.278 70.7491 111.607 67.5455 111.07C64.3419 110.533 61.2776 109.099 58.3526 106.767C55.4276 104.435 53.3467 101.767 52.1099 98.7636C50.8731 95.76 50.5126 92.7058 51.0283 89.6008C51.5721 86.4605 52.9117 83.5512 55.0471 80.8729C57.9411 77.2431 61.3482 75.3193 65.2685 75.1016L62.2554 72.6993L68.8301 64.4529ZM78.7041 97.3997C80.3618 95.3204 81.0337 93.0317 80.7199 90.5334C80.3708 88.007 78.998 85.7885 76.6016 83.8779C74.2052 81.9673 71.7543 81.1373 69.2489 81.3878C66.7082 81.6102 64.609 82.7611 62.9513 84.8403C61.2655 86.9547 60.5971 89.2752 60.9462 91.8015C61.2601 94.2998 62.6152 96.5043 65.0116 98.4149C67.408 100.325 69.8765 101.17 72.4172 100.947C74.9226 100.697 77.0182 99.5141 78.7041 97.3997Z" fill="#D9D9D9"/>
<path d="M116.712 74.9968C113.533 77.2141 110.217 78.5653 106.764 79.0505C103.322 79.4729 100.068 79.0224 97.0016 77.6989C93.9725 76.3497 91.4266 74.1964 89.364 71.2389C87.3014 68.2815 86.1603 65.1484 85.9407 61.8397C85.7582 58.5052 86.4726 55.3144 88.084 52.2673C89.7066 49.1574 92.1075 46.4938 95.2867 44.2765C98.429 42.085 101.629 40.8424 104.886 40.549C108.154 40.1927 111.175 40.8607 113.949 42.5529L109.753 50.8368C106.293 49.1841 103.102 49.3762 100.182 51.413C97.9266 52.9858 96.5753 55.0272 96.1279 57.5372C95.6805 60.0472 96.3464 62.5776 98.1254 65.1284C99.9044 67.6792 102.049 69.1783 104.559 69.6257C107.069 70.0731 109.452 69.5104 111.707 67.9376C114.664 65.875 115.947 62.9473 115.554 59.1546L124.816 58.1348C125.395 61.2485 124.965 64.2958 123.527 67.2767C122.126 70.2319 119.855 72.8052 116.712 74.9968Z" fill="#D9D9D9"/>
<path d="M154.716 19.4962L166.096 54.0423L156.079 57.3421L147.406 31.0151L133.023 35.7533L141.695 62.0802L131.742 65.3588L120.362 30.8128L154.716 19.4962Z" fill="#D9D9D9"/>
<path d="M207.97 17.623L208.09 53.995L198.017 54.0283L198.003 49.7691C196.656 51.3511 194.992 52.5509 193.012 53.3688C191.076 54.1864 189.004 54.5989 186.796 54.6062C182.018 54.622 178.205 53.2599 175.357 50.52C172.553 47.7799 171.143 43.7057 171.125 38.2972L171.057 17.745L181.604 17.7102L181.666 36.7074C181.686 42.5666 184.152 45.4881 189.064 45.4718C191.633 45.4633 193.681 44.6453 195.208 43.0177C196.735 41.345 197.493 38.8861 197.483 35.641L197.423 17.6579L207.97 17.623Z" fill="#D9D9D9"/>
<path d="M229.827 61.476C226.105 60.3934 222.971 58.6604 220.426 56.2771C217.936 53.8631 216.244 51.0474 215.349 47.83C214.498 44.6252 214.576 41.2917 215.583 37.8295C216.59 34.3674 218.312 31.5122 220.75 29.2641C223.231 27.0286 226.163 25.5815 229.546 24.9229C232.985 24.2335 236.566 24.4301 240.288 25.5127C243.966 26.5828 246.942 28.2933 249.216 30.6444C251.545 32.9647 252.921 35.7356 253.346 38.957L244.263 40.8916C243.377 37.1604 241.225 34.7976 237.806 33.8031C235.166 33.0352 232.729 33.265 230.494 34.4925C228.26 35.7201 226.708 37.8269 225.839 40.813C224.971 43.7991 225.15 46.4095 226.378 48.6441C227.605 50.8788 229.539 52.38 232.179 53.1479C235.641 54.155 238.725 53.3154 241.431 50.629L248.04 57.1983C245.979 59.6029 243.337 61.1814 240.114 61.9337C236.934 62.6986 233.505 62.546 229.827 61.476Z" fill="#D9D9D9"/>
<path d="M296.846 56.2964L277.122 86.8558L268.658 81.393L270.932 77.8713C267.024 79.1045 262.988 78.3767 258.822 75.6881C255.944 73.8305 253.747 71.5003 252.23 68.6974C250.751 65.919 250.119 62.9092 250.334 59.668C250.548 56.4269 251.67 53.2348 253.698 50.0917C255.727 46.9487 258.174 44.6121 261.039 43.0819C263.904 41.5516 266.907 40.8883 270.048 41.0917C273.227 41.3196 276.256 42.3623 279.134 44.2199C283.034 46.7374 285.288 49.9357 285.896 53.8147L287.985 50.577L296.846 56.2964ZM265.049 69.4074C267.283 70.8494 269.627 71.2897 272.082 70.7282C274.561 70.1289 276.631 68.5417 278.293 65.9667C279.956 63.3917 280.537 60.8702 280.038 58.4022C279.563 55.8964 278.209 53.9225 275.974 52.4804C273.702 51.0139 271.327 50.5803 268.848 51.1797C266.393 51.7412 264.335 53.3094 262.673 55.8844C261.011 58.4595 260.417 60.9999 260.892 63.5057C261.391 65.9736 262.777 67.9409 265.049 69.4074Z" fill="#D9D9D9"/>
<path d="M308.842 68.4502L315.453 76.5806L304.437 85.5374L314.418 97.8118L325.433 88.855L332.087 97.0378L303.866 119.984L297.213 111.801L307.756 103.228L297.776 90.9542L287.232 99.5271L280.621 91.3967L308.842 68.4502Z" fill="#D9D9D9"/>
<path d="M352.477 145.464L318.564 158.612L314.923 149.22L318.894 147.68C316.934 146.99 315.218 145.867 313.745 144.311C312.288 142.797 311.16 141.011 310.362 138.951C308.635 134.497 308.54 130.449 310.077 126.808C311.63 123.209 314.928 120.431 319.971 118.476L339.133 111.047L342.946 120.881L325.233 127.748C319.77 129.866 317.926 133.215 319.702 137.795C320.631 140.191 322.129 141.81 324.195 142.652C326.304 143.478 328.871 143.304 331.897 142.131L348.664 135.631L352.477 145.464Z" fill="#D9D9D9"/>
<path d="M327.784 181.785C327.923 183.673 328.314 185.316 328.959 186.715C329.652 188.156 330.652 189.461 331.958 190.63L326.3 196.672C322.139 193.542 319.818 188.696 319.336 182.133C319.037 178.043 319.558 174.367 320.9 171.105C322.288 167.84 324.335 165.249 327.042 163.333C329.748 161.418 332.9 160.328 336.496 160.064C340.047 159.804 343.299 160.402 346.253 161.857C349.255 163.354 351.65 165.506 353.437 168.313C355.273 171.161 356.326 174.428 356.596 178.113C356.85 181.575 356.339 184.776 355.063 187.716C353.832 190.653 351.884 193.056 349.22 194.923C346.603 196.833 343.407 197.925 339.631 198.202L332.471 171.748C330.729 172.644 329.468 173.934 328.688 175.618C327.911 177.347 327.61 179.403 327.784 181.785ZM348.64 178.697C348.445 176.045 347.433 173.95 345.603 172.412C343.773 170.874 341.349 170.17 338.331 170.301L343.065 187.715C344.916 187.082 346.348 185.96 347.36 184.349C348.371 182.739 348.798 180.854 348.64 178.697Z" fill="#D9D9D9"/>
<path d="M354.983 253.911C352.699 260.131 349.397 264.415 345.077 266.766C340.741 269.159 335.823 269.345 330.323 267.325C325.119 265.414 321.619 262.328 319.823 258.068C318.011 253.849 318.146 248.905 320.228 243.236C320.912 241.375 321.77 239.625 322.803 237.988C323.821 236.393 325.147 234.744 326.782 233.039L313.518 228.168L317.247 218.014L343.52 227.663C349.486 229.854 353.47 233.19 355.474 237.671C357.462 242.194 357.298 247.607 354.983 253.911ZM328.623 244.303C327.52 247.306 327.434 249.892 328.367 252.059C329.284 254.268 331.139 255.886 333.931 256.911C336.766 257.952 339.269 257.935 341.44 256.86C343.596 255.827 345.202 253.872 346.259 250.995C347.362 247.992 347.357 245.325 346.244 242.996C345.115 240.709 342.986 238.99 339.855 237.84L334.905 236.022C333.55 236.965 332.324 238.148 331.226 239.569C330.112 241.032 329.244 242.61 328.623 244.303Z" fill="#D9D9D9"/>
<path d="M305.749 309.723L277.328 287.026L283.614 279.155L286.889 281.77C286.055 277.759 287.185 273.816 290.279 269.942C292.417 267.266 294.956 265.314 297.897 264.086C300.81 262.894 303.868 262.568 307.072 263.107C310.275 263.646 313.338 265.083 316.261 267.418C319.184 269.752 321.263 272.422 322.497 275.426C323.732 278.431 324.09 281.485 323.571 284.59C323.025 287.73 321.683 290.638 319.546 293.315C316.649 296.942 313.24 298.863 309.319 299.078L312.331 301.482L305.749 309.723ZM295.902 276.769C294.243 278.847 293.569 281.135 293.881 283.633C294.228 286.16 295.599 288.38 297.993 290.292C300.388 292.205 302.839 293.037 305.344 292.788C307.885 292.568 309.985 291.419 311.645 289.341C313.332 287.228 314.002 284.908 313.655 282.381C313.343 279.883 311.99 277.677 309.595 275.765C307.2 273.852 304.733 273.006 302.192 273.226C299.686 273.475 297.589 274.656 295.902 276.769Z" fill="#D9D9D9"/>
<path d="M257.875 299.141C261.056 296.926 264.374 295.577 267.827 295.095C271.27 294.676 274.523 295.129 277.588 296.455C280.616 297.806 283.16 299.962 285.221 302.921C287.281 305.88 288.419 309.014 288.636 312.323C288.816 315.658 288.099 318.848 286.485 321.894C284.86 325.002 282.457 327.664 279.276 329.879C276.132 332.068 272.931 333.307 269.673 333.598C266.405 333.952 263.384 333.281 260.612 331.587L264.815 323.306C268.274 324.962 271.464 324.772 274.387 322.738C276.643 321.167 277.996 319.127 278.445 316.617C278.895 314.108 278.231 311.577 276.454 309.024C274.677 306.472 272.534 304.971 270.024 304.522C267.515 304.072 265.132 304.633 262.875 306.204C259.916 308.264 258.631 311.191 259.02 314.984L249.757 315.996C249.182 312.882 249.614 309.835 251.054 306.855C252.458 303.901 254.731 301.33 257.875 299.141Z" fill="#D9D9D9"/>
<path d="M219.826 354.609L208.475 320.054L218.495 316.763L227.145 343.097L241.533 338.37L232.882 312.036L242.838 308.766L254.189 343.321L219.826 354.609Z" fill="#D9D9D9"/>
<path d="M166.57 356.439L166.479 320.067L176.553 320.042L176.563 324.301C177.911 322.72 179.576 321.522 181.557 320.705C183.493 319.889 185.565 319.479 187.774 319.473C192.551 319.461 196.363 320.826 199.21 323.569C202.011 326.311 203.418 330.386 203.432 335.795L203.483 356.347L192.936 356.373L192.889 337.376C192.874 331.517 190.411 328.593 185.498 328.606C182.929 328.612 180.88 329.428 179.352 331.055C177.824 332.726 177.064 335.184 177.072 338.43L177.117 356.413L166.57 356.439Z" fill="#D9D9D9"/>
<path d="M144.749 312.568C148.47 313.653 151.603 315.389 154.146 317.774C156.634 320.191 158.324 323.008 159.216 326.226C160.064 329.431 159.984 332.765 158.974 336.226C157.964 339.687 156.239 342.541 153.8 344.787C151.317 347.021 148.384 348.465 145 349.121C141.56 349.808 137.979 349.608 134.258 348.522C130.581 347.449 127.606 345.736 125.335 343.383C123.008 341.061 121.633 338.289 121.212 335.067L130.296 333.14C131.179 336.872 133.329 339.237 136.747 340.234C139.386 341.004 141.824 340.776 144.06 339.551C146.295 338.325 147.849 336.219 148.72 333.234C149.591 330.249 149.414 327.638 148.188 325.402C146.962 323.167 145.03 321.664 142.39 320.894C138.929 319.884 135.844 320.721 133.136 323.405L126.533 316.83C128.596 314.427 131.239 312.851 134.463 312.101C137.643 311.339 141.072 311.495 144.749 312.568Z" fill="#D9D9D9"/>
<path d="M77.7264 317.693L97.4759 287.149L105.935 292.619L103.659 296.139C107.567 294.909 111.603 295.64 115.766 298.332C118.643 300.192 120.838 302.524 122.353 305.328C123.829 308.108 124.459 311.118 124.242 314.359C124.025 317.6 122.901 320.791 120.869 323.932C118.838 327.074 116.389 329.408 113.523 330.936C110.656 332.464 107.653 333.125 104.512 332.919C101.333 332.689 98.3058 331.643 95.4294 329.784C91.531 327.263 89.2796 324.063 88.6752 320.183L86.5828 323.419L77.7264 317.693ZM109.535 304.608C107.302 303.164 104.958 302.721 102.503 303.281C100.023 303.878 97.9514 305.464 96.2872 308.037C94.6231 310.611 94.0396 313.132 94.5367 315.6C95.0094 318.107 96.3623 320.082 98.5953 321.526C100.866 322.994 103.241 323.429 105.721 322.832C108.176 322.273 110.235 320.706 111.899 318.132C113.564 315.559 114.159 313.019 113.687 310.513C113.19 308.044 111.806 306.076 109.535 304.608Z" fill="#D9D9D9"/>
<path d="M65.7408 305.529L59.1364 297.393L70.1591 288.445L60.1886 276.163L49.1659 285.111L42.5189 276.922L70.758 253.999L77.405 262.187L66.8547 270.752L76.8252 283.034L87.3755 274.47L93.9798 282.605L65.7408 305.529Z" fill="#D9D9D9"/>
<path d="M22.1688 228.48L56.0922 215.36L59.7258 224.755L55.7534 226.292C57.7124 226.984 59.4279 228.108 60.8999 229.665C62.3557 231.18 63.4819 232.967 64.2785 235.027C66.0019 239.483 66.0936 243.531 64.5536 247.171C62.9974 250.769 59.6971 253.543 54.6528 255.494L35.4842 262.908L31.6798 253.072L49.3981 246.219C54.8628 244.105 56.7091 240.758 54.937 236.176C54.0103 233.78 52.5139 232.159 50.4478 231.316C48.3397 230.488 45.7723 230.659 42.7457 231.83L25.9732 238.317L22.1688 228.48Z" fill="#D9D9D9"/>
<path d="M46.8903 192.179C46.7534 190.291 46.3631 188.648 45.7193 187.248C45.0274 185.807 44.0289 184.501 42.7239 183.331L48.3867 177.294C52.5453 180.427 54.8626 185.275 55.3385 191.838C55.6351 195.929 55.1108 199.604 53.7657 202.865C52.3755 206.129 50.3264 208.718 47.6182 210.632C44.9101 212.545 41.7579 213.632 38.1616 213.893C34.6104 214.151 31.3584 213.55 28.4058 212.092C25.4049 210.593 23.0119 208.439 21.2267 205.631C19.3933 202.782 18.3429 199.514 18.0756 195.828C17.8246 192.366 18.3382 189.166 19.6163 186.226C20.8494 183.29 22.7992 180.889 25.4657 179.024C28.0839 177.117 31.2811 176.026 35.0571 175.753L42.1951 202.213C43.9378 201.318 45.2 200.029 45.9817 198.346C46.7602 196.617 47.063 194.562 46.8903 192.179ZM26.0323 195.251C26.2246 197.903 27.2351 199.999 29.0639 201.538C30.8928 203.078 33.3163 203.783 36.3347 203.655L31.6148 186.238C29.7626 186.869 28.3301 187.99 27.3171 189.599C26.3041 191.209 25.8758 193.093 26.0323 195.251Z" fill="#D9D9D9"/>
</svg>
