<svg width="374" height="374" viewBox="0 0 374 374" fill="none" xmlns="http://www.w3.org/2000/svg">
<path d="M34.3414 150.75L45.8103 152.094L45.0825 158.305L39.0789 157.602L36.5945 178.8L42.5981 179.504L41.8703 185.715L30.4062 184.329L30.8138 180.851L19.9659 179.58C17.178 179.253 14.8689 178.423 13.0385 177.089C11.1805 175.752 9.85727 174.03 9.06887 171.923C8.28372 169.788 8.04641 167.396 8.35695 164.746C8.6675 162.096 9.44987 159.838 10.7041 157.97C11.9615 156.075 13.6487 154.691 15.7654 153.82C17.8546 152.946 20.2932 152.672 23.0811 152.998L33.9289 154.27L34.3414 150.75ZM33.138 161.019L21.7105 159.679C19.447 159.414 17.6677 159.793 16.3726 160.817C15.0806 161.813 14.3133 163.346 14.0707 165.416C13.8313 167.458 14.2218 169.141 15.242 170.464C16.2654 171.759 17.9089 172.539 20.1723 172.805L31.5999 174.144L33.138 161.019Z" fill="#D9D9D9"/>
<path d="M45.1426 137.856C44.383 140.093 43.2389 141.95 41.7102 143.427C40.1641 144.868 38.3923 145.807 36.3949 146.244C34.3974 146.681 32.346 146.543 30.2407 145.828C28.1355 145.113 26.4237 143.974 25.1053 142.411C23.787 140.848 22.9667 139.028 22.6443 136.953C22.3046 134.841 22.5145 132.667 23.2741 130.431C24.0337 128.194 25.1865 126.354 26.7326 124.913C28.2524 123.463 30.011 122.519 32.0084 122.082C34.0059 121.645 36.0573 121.784 38.1626 122.499C40.2678 123.214 41.9796 124.352 43.298 125.915C44.6163 127.478 45.4498 129.302 45.7984 131.387C46.1208 133.463 45.9022 135.62 45.1426 137.856ZM40.0899 136.141C40.6261 134.562 40.5377 133.093 39.8246 131.736C39.0941 130.343 37.8342 129.343 36.0447 128.736C34.2552 128.128 32.6599 128.158 31.2588 128.827C29.8403 129.461 28.8629 130.567 28.3268 132.146C27.7906 133.725 27.8877 135.211 28.6182 136.604C29.3223 137.987 30.5691 138.983 32.3586 139.591C34.1481 140.198 35.7565 140.172 37.184 139.512C38.5851 138.843 39.5538 137.72 40.0899 136.141Z" fill="#D9D9D9"/>
<path d="M61.9142 102.714L50.3532 95.8925L56.6365 107.393L55.2383 109.762L42.1825 109.658L53.7793 116.501L50.7923 121.563L31.4762 110.166L34.9293 104.314L49.739 104.727L42.4498 91.568L45.5427 86.3261L64.9012 97.6516L61.9142 102.714Z" fill="#D9D9D9"/>
<path d="M67.8699 60.818L84.3771 76.0011L80.1721 80.5728L78.2698 78.823C78.6104 81.3264 77.746 83.7031 75.6764 85.9532C74.2465 87.5077 72.6006 88.5993 70.7387 89.2278C68.8955 89.8359 67.0004 89.9052 65.0532 89.4359C63.1061 88.9665 61.2836 87.951 59.5859 86.3895C57.8881 84.8279 56.7241 83.0965 56.094 81.1953C55.4638 79.294 55.3748 77.3997 55.827 75.5123C56.298 73.6044 57.2485 71.8732 58.6783 70.3186C60.6162 68.2117 62.7955 67.1766 65.2163 67.2131L63.4674 65.6045L67.8699 60.818ZM72.511 81.5124C73.6211 80.3056 74.1339 78.927 74.0494 77.3767C73.9445 75.8076 73.1966 74.3833 71.8057 73.104C70.4147 71.8246 68.9433 71.2075 67.3913 71.2527C65.8189 71.279 64.4777 71.8956 63.3677 73.1025C62.2388 74.3298 61.7268 75.728 61.8317 77.2971C61.9162 78.8474 62.6539 80.2623 64.0448 81.5416C65.4357 82.821 66.9174 83.4475 68.4898 83.4211C70.0418 83.376 71.3822 82.7397 72.511 81.5124Z" fill="#D9D9D9"/>
<path d="M105.122 33.1795L117.719 51.7351L89.403 70.9594L76.8054 52.4038L82.1513 48.7744L91.7518 62.9152L97.9255 58.7238L88.325 44.583L93.671 40.9535L103.271 55.0944L109.376 50.9498L99.7757 36.809L105.122 33.1795Z" fill="#D9D9D9"/>
<path d="M115.379 28.7491L121.417 26.4484L124.534 34.629L133.649 31.1558L130.532 22.9751L136.609 20.6596L144.595 41.6176L138.518 43.9332L135.534 36.1031L126.419 39.5764L129.402 47.4064L123.364 49.7071L115.379 28.7491Z" fill="#D9D9D9"/>
<path d="M161.152 33.2895C162.301 33.0837 163.283 32.7383 164.1 32.2532C164.939 31.7358 165.675 31.0393 166.309 30.1634L170.376 33.2464C168.724 35.9988 165.9 37.7328 161.906 38.4482C159.417 38.8942 157.129 38.8099 155.042 38.1955C152.951 37.5537 151.231 36.4641 149.883 34.9269C148.535 33.3897 147.665 31.5268 147.273 29.3383C146.885 27.1772 147.044 25.1442 147.747 23.2395C148.473 21.3025 149.639 19.696 151.246 18.42C152.875 17.1117 154.811 16.2567 157.054 15.8549C159.161 15.4775 161.157 15.5859 163.042 16.1799C164.922 16.7466 166.52 17.7873 167.836 19.3021C169.175 20.7846 170.05 22.6748 170.461 24.9728L154.696 31.0579C155.357 32.0689 156.229 32.7597 157.311 33.1304C158.422 33.4962 159.702 33.5493 161.152 33.2895ZM157.922 20.6969C156.308 20.986 155.088 21.741 154.262 22.9619C153.436 24.1827 153.16 25.7145 153.433 27.5571L163.809 23.5386C163.303 22.4435 162.523 21.6373 161.47 21.12C160.418 20.6027 159.235 20.4617 157.922 20.6969Z" fill="#D9D9D9"/>
<path d="M188.093 31.1576C189.261 31.1538 190.288 30.9837 191.177 30.6473C192.093 30.2831 192.938 29.7245 193.714 28.9716L197.186 32.7122C195.082 35.137 192.001 36.3559 187.944 36.369C185.415 36.3772 183.176 35.8981 181.227 34.9317C179.278 33.9375 177.773 32.5667 176.712 30.8193C175.65 29.0718 175.115 27.0865 175.108 24.8631C175.101 22.6676 175.609 20.6927 176.631 18.9385C177.682 17.1565 179.108 15.7761 180.912 14.7976C182.743 13.7911 184.798 13.2842 187.077 13.2768C189.217 13.2699 191.163 13.7222 192.917 14.6336C194.671 15.5173 196.065 16.819 197.099 18.5387C198.16 20.2306 198.695 22.2437 198.702 24.5782L182.121 27.8419C182.597 28.952 183.337 29.7834 184.339 30.336C185.369 30.8885 186.62 31.1624 188.093 31.1576ZM187.093 18.1959C185.453 18.2013 184.121 18.7336 183.096 19.793C182.071 20.8524 181.534 22.3132 181.484 24.1755L192.399 22.014C192.09 20.8478 191.461 19.9188 190.514 19.227C189.567 18.5353 188.427 18.1916 187.093 18.1959Z" fill="#D9D9D9"/>
<path d="M234.881 27.7621C236.377 28.75 237.426 29.9673 238.03 31.4141C238.667 32.8408 238.781 34.3482 238.372 35.9361C237.929 37.6586 236.979 39.0068 235.523 39.9807C234.067 40.9546 232.283 41.5285 230.172 41.7024C228.088 41.8832 225.902 41.6791 223.614 41.0901C221.676 40.5911 219.801 39.85 217.988 38.8666C216.202 37.8901 214.576 36.6822 213.11 35.2429L216.334 31.0796C217.378 32.152 218.588 33.0806 219.964 33.8654C221.375 34.6303 222.793 35.1964 224.219 35.5636C226.157 36.0626 227.849 36.125 229.294 35.751C230.766 35.3838 231.665 34.5678 231.99 33.3028C232.261 32.2532 232.021 31.3449 231.271 30.5779C230.549 29.8179 229.434 29.2439 227.927 28.8558L221.023 27.0783L222.291 22.1531L228.71 23.8058C230.029 24.1454 231.121 24.1396 231.986 23.7884C232.879 23.4441 233.446 22.801 233.688 21.859C233.973 20.7556 233.656 19.7557 232.739 18.8595C231.849 17.9703 230.569 17.3108 228.901 16.8811C227.662 16.5624 226.339 16.4081 224.93 16.4185C223.528 16.4019 222.149 16.5775 220.791 16.9455L220.123 11.3494C223.505 10.5845 226.932 10.6491 230.404 11.543C232.611 12.1113 234.56 12.9574 236.251 14.0815C237.941 15.2056 239.179 16.5287 239.964 18.0509C240.749 19.573 240.929 21.155 240.507 22.7967C240.16 24.1424 239.489 25.2465 238.492 26.1091C237.495 26.9716 236.291 27.5226 234.881 27.7621Z" fill="#D9D9D9"/>
<path d="M271.21 35.1844L261.588 55.4435L255.977 52.7787L257.086 50.444C254.795 51.5098 252.269 51.3869 249.508 50.0754C247.6 49.1692 246.071 47.9198 244.919 46.327C243.794 44.7462 243.167 42.9563 243.039 40.9574C242.912 38.9586 243.343 36.9173 244.332 34.8337C245.322 32.75 246.632 31.1261 248.262 29.9618C249.891 28.7975 251.675 28.1523 253.611 28.026C255.573 27.9117 257.508 28.3076 259.416 29.2138C262.002 30.4419 263.635 32.2175 264.316 34.5408L265.336 32.3944L271.21 35.1844ZM252.814 45.7382C254.295 46.4417 255.764 46.5238 257.22 45.9847C258.688 45.4204 259.827 44.2847 260.638 42.5776C261.448 40.8705 261.603 39.2824 261.101 37.8133C260.61 36.319 259.625 35.2201 258.143 34.5167C256.637 33.8013 255.15 33.7257 253.682 34.29C252.226 34.8292 251.093 35.9523 250.282 37.6594C249.471 39.3665 249.311 40.9672 249.801 42.4614C250.303 43.9306 251.308 45.0229 252.814 45.7382Z" fill="#D9D9D9"/>
<path d="M299.185 54.7221L288.018 69.6919C285.559 72.9889 282.873 74.7995 279.962 75.1239C277.05 75.4483 273.946 74.3808 270.649 71.9214C268.911 70.6253 267.421 69.184 266.177 67.5975C264.933 66.011 264.098 64.4346 263.672 62.8683L268.535 60.6712C268.827 61.86 269.42 63.0646 270.312 64.2851C271.188 65.5279 272.205 66.5814 273.363 67.4455C275.168 68.7915 276.801 69.3681 278.262 69.1753C279.729 69.0214 281.077 68.1202 282.307 66.4718L282.88 65.7032C280.408 66.1821 277.958 65.5159 275.53 63.7046C273.881 62.4749 272.633 60.9885 271.783 59.2454C270.973 57.4966 270.657 55.666 270.835 53.7534C271.014 51.8409 271.743 50.027 273.022 48.3117C274.302 46.5964 275.833 45.3807 277.615 44.6646C279.397 43.9485 281.234 43.7409 283.124 44.0417C285.054 44.3369 286.843 45.0993 288.491 46.329C291.098 48.2732 292.441 50.6098 292.52 53.3387L294.24 51.0331L299.185 54.7221ZM279.756 60.2002C281.137 61.2305 282.561 61.6687 284.028 61.5148C285.534 61.3553 286.778 60.6184 287.758 59.3041C288.738 57.9897 289.082 56.5993 288.789 55.1326C288.535 53.6603 287.718 52.409 286.337 51.3787C284.956 50.3485 283.512 49.9131 282.006 50.0726C280.517 50.2099 279.282 50.9357 278.302 52.25C277.321 53.5643 276.969 54.9659 277.245 56.4549C277.538 57.9215 278.375 59.17 279.756 60.2002Z" fill="#D9D9D9"/>
<path d="M322.729 79.2569L306.075 94.2788L301.915 89.6665L303.834 87.9354C301.31 88.0414 299.024 86.9595 296.976 84.6894C295.562 83.121 294.628 81.3807 294.176 79.4683C293.742 77.5765 293.849 75.6832 294.498 73.7882C295.146 71.8932 296.327 70.1732 298.04 68.6281C299.753 67.0831 301.585 66.0854 303.537 65.635C305.488 65.1846 307.383 65.2723 309.22 65.8983C311.075 66.5448 312.711 67.6523 314.125 69.2207C316.043 71.3463 316.87 73.6125 316.609 76.0194L318.373 74.4279L322.729 79.2569ZM301.692 81.9512C302.791 83.1688 304.116 83.8077 305.667 83.8679C307.239 83.9096 308.727 83.2975 310.13 82.0317C311.533 80.7659 312.285 79.3583 312.384 77.8089C312.504 76.2409 312.015 74.8481 310.917 73.6305C309.8 72.3923 308.456 71.7524 306.884 71.7107C305.332 71.6505 303.855 72.2533 302.452 73.5191C301.048 74.7848 300.286 76.2018 300.166 77.7698C300.067 79.3192 300.576 80.713 301.692 81.9512Z" fill="#D9D9D9"/>
<path d="M329.318 88.2723L332.64 93.8149L325.13 98.3147L330.144 106.682L337.654 102.183L340.996 107.761L321.758 119.289L318.415 113.711L325.603 109.404L320.589 101.036L313.401 105.343L310.08 99.8003L329.318 88.2723Z" fill="#D9D9D9"/>
<path d="M353.113 138.493L332.018 146.111L329.908 140.269L332.379 139.377C331.18 138.923 330.138 138.207 329.253 137.226C328.376 136.272 327.707 135.155 327.244 133.874C326.243 131.103 326.243 128.607 327.243 126.384C328.252 124.187 330.325 122.523 333.462 121.39L345.381 117.085L347.59 123.202L336.572 127.181C333.174 128.408 331.99 130.446 333.019 133.295C333.557 134.785 334.457 135.805 335.719 136.354C337.007 136.893 338.592 136.823 340.474 136.143L350.904 132.377L353.113 138.493Z" fill="#D9D9D9"/>
<path d="M340.17 162.918C340.359 164.07 340.69 165.058 341.164 165.881C341.669 166.728 342.355 167.474 343.221 168.12L340.08 172.143C337.352 170.451 335.659 167.603 335.001 163.599C334.59 161.104 334.707 158.817 335.352 156.74C336.023 154.658 337.137 152.954 338.694 151.628C340.25 150.302 342.125 149.458 344.319 149.098C346.486 148.741 348.516 148.929 350.411 149.659C352.337 150.413 353.927 151.602 355.18 153.227C356.464 154.875 357.292 156.823 357.661 159.072C358.008 161.183 357.871 163.177 357.25 165.054C356.657 166.926 355.593 168.509 354.06 169.803C352.558 171.12 350.656 171.968 348.352 172.346L342.493 156.495C341.473 157.142 340.77 158.004 340.384 159.081C340.002 160.186 339.931 161.465 340.17 162.918ZM352.807 159.869C352.541 158.251 351.804 157.021 350.595 156.177C349.386 155.334 347.858 155.036 346.012 155.283L349.881 165.716C350.984 165.225 351.801 164.457 352.333 163.412C352.866 162.367 353.024 161.186 352.807 159.869Z" fill="#D9D9D9"/>
<path d="M339.537 222.379L328.065 221.059L328.78 214.847L334.785 215.538L337.225 194.333L331.22 193.643L331.934 187.43L343.401 188.792L343.001 192.27L353.852 193.519C356.64 193.84 358.951 194.665 360.784 195.995C362.645 197.328 363.972 199.047 364.765 201.153C365.555 203.286 365.797 205.677 365.492 208.328C365.187 210.978 364.409 213.239 363.159 215.109C361.906 217.007 360.222 218.394 358.107 219.27C356.019 220.149 353.581 220.428 350.793 220.107L339.942 218.858L339.537 222.379ZM340.719 212.108L352.149 213.423C354.413 213.683 356.192 213.301 357.485 212.274C358.775 211.276 359.539 209.741 359.777 207.67C360.012 205.627 359.618 203.945 358.595 202.625C357.569 201.332 355.924 200.555 353.66 200.295L342.229 198.98L340.719 212.108Z" fill="#D9D9D9"/>
<path d="M328.763 235.298C329.518 233.06 330.658 231.2 332.184 229.72C333.727 228.276 335.496 227.333 337.493 226.891C339.489 226.45 341.541 226.585 343.648 227.295C345.755 228.006 347.469 229.141 348.791 230.701C350.112 232.261 350.936 234.079 351.263 236.154C351.607 238.265 351.402 240.439 350.647 242.677C349.892 244.916 348.744 246.757 347.201 248.202C345.684 249.656 343.927 250.603 341.931 251.045C339.934 251.486 337.882 251.351 335.776 250.641C333.669 249.931 331.955 248.795 330.633 247.235C329.311 245.675 328.474 243.853 328.121 241.769C327.794 239.693 328.008 237.537 328.763 235.298ZM333.819 237.003C333.286 238.583 333.378 240.051 334.094 241.407C334.827 242.798 336.09 243.796 337.88 244.4C339.671 245.003 341.266 244.969 342.666 244.298C344.083 243.661 345.058 242.553 345.591 240.972C346.124 239.392 346.023 237.907 345.29 236.516C344.583 235.133 343.334 234.14 341.543 233.536C339.753 232.933 338.144 232.962 336.718 233.625C335.318 234.297 334.352 235.423 333.819 237.003Z" fill="#D9D9D9"/>
<path d="M312.066 270.476L323.641 277.273L317.334 265.786L318.727 263.413L331.783 263.49L320.172 256.672L323.148 251.603L342.488 262.959L339.048 268.819L324.237 268.437L331.554 281.581L328.472 286.829L309.09 275.545L312.066 270.476Z" fill="#D9D9D9"/>
<path d="M306.199 312.384L289.66 297.236L293.855 292.655L295.761 294.401C295.415 291.898 296.275 289.52 298.339 287.265C299.766 285.708 301.41 284.613 303.27 283.98C305.112 283.368 307.007 283.295 308.955 283.76C310.903 284.226 312.728 285.237 314.429 286.795C316.13 288.353 317.298 290.082 317.932 291.982C318.566 293.882 318.659 295.776 318.211 297.664C317.744 299.573 316.797 301.307 315.37 302.864C313.437 304.975 311.26 306.015 308.839 305.983L310.591 307.588L306.199 312.384ZM301.514 291.699C300.407 292.909 299.897 294.288 299.984 295.838C300.093 297.407 300.844 298.83 302.237 300.106C303.631 301.383 305.104 301.997 306.655 301.948C308.228 301.919 309.568 301.299 310.675 300.09C311.801 298.86 312.31 297.461 312.202 295.892C312.115 294.342 311.374 292.929 309.98 291.652C308.587 290.376 307.104 289.753 305.531 289.782C303.979 289.831 302.64 290.47 301.514 291.699Z" fill="#D9D9D9"/>
<path d="M269.007 340.1L256.37 321.572L284.645 302.287L297.282 320.816L291.944 324.457L282.314 310.336L276.149 314.541L285.779 328.661L280.441 332.302L270.811 318.182L264.715 322.339L274.345 336.46L269.007 340.1Z" fill="#D9D9D9"/>
<path d="M258.757 344.554L252.724 346.867L249.589 338.693L240.481 342.186L243.616 350.36L237.543 352.688L229.513 331.747L235.586 329.419L238.586 337.243L247.694 333.75L244.694 325.926L250.727 323.613L258.757 344.554Z" fill="#D9D9D9"/>
<path d="M212.975 340.111C211.826 340.319 210.844 340.666 210.029 341.153C209.191 341.672 208.456 342.37 207.824 343.248L203.75 340.173C205.397 337.417 208.217 335.677 212.209 334.953C214.698 334.502 216.986 334.582 219.074 335.192C221.166 335.829 222.888 336.915 224.24 338.449C225.591 339.984 226.466 341.845 226.862 344.032C227.254 346.193 227.1 348.226 226.401 350.132C225.679 352.071 224.516 353.68 222.912 354.959C221.286 356.271 219.351 357.13 217.109 357.536C215.003 357.918 213.007 357.814 211.121 357.224C209.24 356.661 207.639 355.624 206.32 354.112C204.978 352.632 204.099 350.744 203.683 348.447L219.436 342.328C218.772 341.319 217.899 340.63 216.815 340.262C215.704 339.898 214.424 339.848 212.975 340.111ZM216.231 352.696C217.845 352.404 219.063 351.646 219.887 350.424C220.71 349.201 220.983 347.669 220.705 345.827L210.338 349.867C210.847 350.961 211.628 351.766 212.682 352.281C213.736 352.796 214.919 352.934 216.231 352.696Z" fill="#D9D9D9"/>
<path d="M186.042 342.299C184.875 342.305 183.847 342.478 182.96 342.816C182.045 343.182 181.2 343.742 180.426 344.497L176.946 340.764C179.045 338.334 182.123 337.109 186.181 337.087C188.71 337.074 190.95 337.548 192.9 338.51C194.851 339.501 196.359 340.868 197.424 342.613C198.49 344.359 199.029 346.343 199.04 348.566C199.052 350.762 198.549 352.738 197.53 354.494C196.483 356.278 195.059 357.662 193.258 358.644C191.429 359.654 189.375 360.165 187.096 360.178C184.956 360.189 183.009 359.741 181.253 358.833C179.497 357.953 178.101 356.654 177.063 354.937C175.998 353.247 175.459 351.235 175.447 348.901L192.021 345.602C191.543 344.493 190.802 343.663 189.798 343.113C188.767 342.562 187.515 342.291 186.042 342.299ZM187.07 355.259C188.71 355.25 190.041 354.715 191.064 353.653C192.086 352.592 192.62 351.13 192.666 349.267L181.755 351.452C182.067 352.617 182.698 353.545 183.646 354.235C184.595 354.924 185.736 355.266 187.07 355.259Z" fill="#D9D9D9"/>
<path d="M139.262 345.795C137.763 344.81 136.711 343.595 136.105 342.15C135.465 340.724 135.347 339.217 135.753 337.628C136.192 335.905 137.139 334.555 138.593 333.578C140.047 332.601 141.83 332.023 143.94 331.844C146.024 331.659 148.21 331.858 150.499 332.442C152.438 332.937 154.315 333.674 156.13 334.654C157.919 335.626 159.547 336.831 161.016 338.267L157.801 342.437C156.755 341.367 155.543 340.441 154.165 339.659C152.753 338.897 151.333 338.334 149.906 337.97C147.967 337.475 146.276 337.417 144.831 337.794C143.36 338.164 142.463 338.982 142.14 340.248C141.872 341.298 142.114 342.206 142.865 342.971C143.589 343.73 144.705 344.301 146.213 344.686L153.12 346.449L151.863 351.377L145.44 349.738C144.121 349.401 143.029 349.409 142.164 349.762C141.273 350.108 140.707 350.753 140.466 351.695C140.185 352.799 140.503 353.798 141.422 354.693C142.315 355.58 143.596 356.237 145.265 356.663C146.504 356.979 147.828 357.13 149.236 357.117C150.638 357.13 152.018 356.952 153.374 356.581L154.055 362.176C150.674 362.948 147.247 362.891 143.773 362.004C141.565 361.441 139.614 360.599 137.921 359.478C136.228 358.358 134.987 357.037 134.199 355.517C133.411 353.996 133.227 352.415 133.646 350.772C133.99 349.426 134.659 348.32 135.654 347.455C136.649 346.591 137.852 346.037 139.262 345.795Z" fill="#D9D9D9"/>
<path d="M102.915 338.45L112.494 318.17L118.11 320.823L117.006 323.16C119.295 322.089 121.821 322.207 124.585 323.513C126.495 324.415 128.027 325.661 129.182 327.251C130.311 328.83 130.942 330.618 131.074 332.617C131.205 334.615 130.779 336.657 129.794 338.743C128.808 340.829 127.502 342.456 125.875 343.623C124.248 344.791 122.466 345.44 120.529 345.571C118.568 345.689 116.632 345.297 114.722 344.395C112.134 343.173 110.497 341.401 109.81 339.079L108.796 341.227L102.915 338.45ZM121.289 327.857C119.806 327.156 118.337 327.077 116.883 327.62C115.416 328.187 114.279 329.325 113.472 331.034C112.665 332.743 112.514 334.331 113.019 335.799C113.513 337.293 114.501 338.389 115.983 339.09C117.491 339.802 118.978 339.874 120.445 339.307C121.9 338.765 123.031 337.639 123.838 335.93C124.645 334.221 124.802 332.62 124.308 331.127C123.803 329.659 122.797 328.569 121.289 327.857Z" fill="#D9D9D9"/>
<path d="M74.8975 318.971L86.0327 303.977C88.4851 300.675 91.1668 298.859 94.0778 298.528C96.9889 298.198 100.095 299.259 103.398 301.711C105.138 303.004 106.631 304.442 107.878 306.026C109.125 307.61 109.964 309.184 110.394 310.75L105.535 312.957C105.24 311.769 104.645 310.565 103.75 309.347C102.872 308.106 101.852 307.055 100.692 306.193C98.885 304.851 97.2509 304.278 95.79 304.473C94.3233 304.63 92.9769 305.534 91.7507 307.185L91.179 307.955C93.6502 307.471 96.1018 308.132 98.5338 309.938C100.185 311.165 101.437 312.648 102.29 314.39C103.104 316.137 103.424 317.967 103.25 319.88C103.075 321.792 102.35 323.608 101.074 325.326C99.7982 327.044 98.2698 328.263 96.489 328.983C94.7081 329.703 92.8721 329.914 90.9808 329.617C89.0507 329.326 87.2601 328.568 85.609 327.341C82.9986 325.403 81.6508 323.069 81.5657 320.34L79.8507 322.649L74.8975 318.971ZM94.3148 313.452C92.9315 312.424 91.5065 311.989 90.0398 312.146C88.5343 312.309 87.2927 313.048 86.315 314.365C85.3374 315.681 84.9965 317.072 85.2925 318.538C85.5495 320.01 86.3697 321.26 87.753 322.287C89.1363 323.314 90.5808 323.747 92.0863 323.584C93.5753 323.444 94.8086 322.715 95.7863 321.399C96.7639 320.082 97.1131 318.68 96.8337 317.192C96.5378 315.726 95.6981 314.479 94.3148 313.452Z" fill="#D9D9D9"/>
<path d="M51.3015 294.485L67.9237 279.428L72.0938 284.032L70.1782 285.767C72.7022 285.656 74.9904 286.733 77.0428 288.998C78.4608 290.564 79.398 292.302 79.8545 294.214C80.2923 296.104 80.1889 297.998 79.5443 299.894C78.8997 301.791 77.7226 303.513 76.013 305.062C74.3034 306.61 72.4733 307.612 70.5226 308.067C68.572 308.521 66.6774 308.437 64.8389 307.815C62.9818 307.173 61.3443 306.069 59.9263 304.503C58.0045 302.382 57.1719 300.117 57.4286 297.71L55.6675 299.305L51.3015 294.485ZM72.3324 291.747C71.2316 290.531 69.9054 289.895 68.3538 289.838C66.7817 289.8 65.2953 290.415 63.8946 291.684C62.494 292.953 61.7456 294.362 61.6493 295.911C61.5325 297.48 62.0245 298.871 63.1253 300.087C64.2448 301.323 65.5906 301.96 67.1628 301.998C68.7143 302.055 70.1904 301.449 71.5911 300.18C72.9917 298.912 73.7504 297.493 73.8673 295.925C73.9635 294.375 73.4519 292.982 72.3324 291.747Z" fill="#D9D9D9"/>
<path d="M44.6931 285.483L41.3601 279.948L48.86 275.432L43.8282 267.075L36.3284 271.591L32.9739 266.02L52.1878 254.451L55.5423 260.022L48.3639 264.344L53.3956 272.701L60.5741 268.379L63.907 273.915L44.6931 285.483Z" fill="#D9D9D9"/>
<path d="M20.7921 235.312L41.8703 227.649L43.9926 233.487L41.5243 234.384C42.7233 234.836 43.7668 235.55 44.6548 236.529C45.5332 237.481 46.2051 238.597 46.6704 239.877C47.6769 242.645 47.6826 245.142 46.6876 247.367C45.683 249.565 43.6136 251.234 40.4793 252.374L28.569 256.704L26.347 250.592L37.3563 246.59C40.7517 245.355 41.932 243.315 40.897 240.468C40.3557 238.979 39.4535 237.961 38.1904 237.415C36.9011 236.878 35.3162 236.952 33.4356 237.635L23.0141 241.424L20.7921 235.312Z" fill="#D9D9D9"/>
<path d="M33.6836 210.86C33.4918 209.709 33.1584 208.722 32.6833 207.9C32.1763 207.054 31.4887 206.309 30.6207 205.665L33.7532 201.636C36.4852 203.322 38.1845 206.166 38.8511 210.169C39.2666 212.663 39.1544 214.95 38.5145 217.029C37.8472 219.112 36.7367 220.819 35.1831 222.148C33.6295 223.477 31.7562 224.325 29.563 224.69C27.3973 225.051 25.3665 224.868 23.4704 224.141C21.5425 223.391 19.9503 222.206 18.6941 220.583C17.4058 218.939 16.5745 216.992 16.2001 214.744C15.8486 212.633 15.9813 210.639 16.5983 208.761C17.1879 206.888 18.2481 205.303 19.7788 204.005C21.2776 202.685 23.1784 201.833 25.4812 201.45L31.3732 217.289C32.3922 216.64 33.0936 215.776 33.4775 214.698C33.8569 213.593 33.9255 212.313 33.6836 210.86ZM21.0524 213.936C21.3218 215.553 22.0618 216.783 23.2725 217.623C24.4831 218.464 26.0114 218.759 27.8573 218.508L23.9658 208.084C22.8646 208.577 22.049 209.347 21.5189 210.393C20.9887 211.439 20.8332 212.62 21.0524 213.936Z" fill="#D9D9D9"/>
</svg>
