<svg width="419" height="420" viewBox="0 0 419 420" fill="none" xmlns="http://www.w3.org/2000/svg">
<path d="M25.3829 128.243L86.1851 143.97L82.5455 158.041L57.6166 151.593L50.4722 179.215L75.4011 185.663L71.7615 199.734L10.9593 184.008L14.5989 169.936L38.5724 176.137L45.7167 148.515L21.7433 142.315L25.3829 128.243Z" fill="#D9D9D9"/>
<path d="M109.307 118.833C106.013 122.706 102.251 125.513 98.0211 127.255C93.7845 128.912 89.4947 129.386 85.1518 128.676C80.8089 127.966 76.815 126.061 73.1702 122.96C69.5254 119.86 67.0041 116.224 65.6064 112.051C64.2087 107.878 64.0108 103.587 65.0126 99.1784C66.0076 94.6852 68.1522 90.5023 71.4461 86.6296C74.7401 82.757 78.5055 79.992 82.7421 78.3345C86.9331 76.6383 91.2001 76.1453 95.543 76.8554C99.8859 77.5656 103.88 79.4708 107.525 82.571C111.169 85.6712 113.691 89.3077 115.088 93.4804C116.486 97.6532 116.707 101.963 115.751 106.411C114.749 110.82 112.601 114.961 109.307 118.833ZM100.559 111.393C102.884 108.659 103.872 105.652 103.522 102.37C103.166 99.0045 101.438 96.004 98.3402 93.3688C95.2421 90.7336 92.0262 89.5294 88.6924 89.7561C85.3518 89.8985 82.5189 91.3366 80.1937 94.0702C77.8686 96.8038 76.8843 99.8535 77.2409 103.219C77.552 106.546 79.2565 109.527 82.3546 112.162C85.4527 114.798 88.6915 116.021 92.0708 115.833C95.4046 115.607 98.2341 114.126 100.559 111.393Z" fill="#D9D9D9"/>
<path d="M152.529 57.4701C158.452 56.5376 162.742 58.6166 165.399 63.7069C167.419 67.5777 167.525 71.3346 165.715 74.9778C163.906 78.621 160.112 81.9509 154.332 84.9676L131.505 96.8821L109.171 54.0915L131.043 42.6752C136.398 39.8799 141.099 38.6744 145.146 39.0588C149.165 39.3901 152.087 41.3056 153.914 44.8052C155.021 46.9262 155.447 49.0991 155.191 51.3241C154.961 53.4683 154.074 55.517 152.529 57.4701ZM129.719 65.7326L139.104 60.8339C143.452 58.5645 144.824 55.892 143.218 52.8166C141.641 49.7943 138.678 49.4178 134.33 51.6872L124.945 56.5859L129.719 65.7326ZM148.898 77.0764C153.458 74.6963 154.921 71.942 153.288 68.8135C152.43 67.1698 151.277 66.2535 149.83 66.0647C148.354 65.8228 146.476 66.297 144.196 67.487L133.538 73.0499L138.478 82.5147L148.898 77.0764Z" fill="#D9D9D9"/>
<path d="M201.278 74.3632C196.215 74.8265 191.563 74.2012 187.322 72.4871C183.135 70.708 179.738 68.0458 177.131 64.5004C174.524 60.9551 173.003 56.7998 172.567 52.0347C172.131 47.2697 172.873 42.9073 174.793 38.9476C176.713 34.988 179.573 31.7832 183.373 29.3333C187.227 26.8183 191.685 25.3292 196.748 24.8658C201.811 24.4025 206.436 25.0604 210.623 26.8395C214.804 28.559 218.199 31.1914 220.805 34.7368C223.412 38.2822 224.934 42.4374 225.37 47.2025C225.806 51.9676 225.064 56.3299 223.144 60.2896C221.224 64.2492 218.367 67.4838 214.572 69.9933C210.772 72.4432 206.341 73.8999 201.278 74.3632ZM200.231 62.927C203.805 62.5999 206.615 61.1416 208.66 58.5519C210.76 55.8972 211.624 52.5447 211.253 48.4944C210.883 44.444 209.427 41.3339 206.886 39.1639C204.399 36.929 201.368 35.975 197.795 36.3021C194.221 36.6291 191.384 38.12 189.285 40.7747C187.18 43.3698 186.313 46.6925 186.683 50.7429C187.054 54.7932 188.512 57.9331 191.059 60.1626C193.6 62.3326 196.657 63.254 200.231 62.927Z" fill="#D9D9D9"/>
<path d="M254.29 81.4703C249.349 80.0417 245.186 77.7488 241.803 74.5915C238.494 71.3934 236.242 67.6605 235.048 63.3927C233.911 59.1415 234.007 54.7175 235.336 50.1207C236.664 45.524 238.944 41.7312 242.174 38.7425C245.461 35.7704 249.349 33.8436 253.838 32.9621C258.401 32.0397 263.153 32.2928 268.094 33.7214C272.978 35.1333 276.931 37.3968 279.953 40.5119C283.049 43.5861 284.882 47.2602 285.452 51.5343L273.404 54.1216C272.22 49.172 269.358 46.041 264.819 44.7287C261.314 43.7154 258.08 44.0257 255.117 45.6596C252.154 47.2936 250.1 50.0929 248.953 54.0576C247.807 58.0223 248.051 61.4861 249.685 64.4489C251.319 67.4118 253.889 69.3998 257.394 70.4131C261.99 71.742 266.081 70.621 269.666 67.05L278.451 75.7535C275.721 78.9492 272.219 81.0497 267.943 82.0551C263.725 83.0772 259.174 82.8822 254.29 81.4703Z" fill="#D9D9D9"/>
<path d="M359.08 97.1953C363.356 101.463 365.475 106.113 365.437 111.146C365.484 116.179 362.994 121.214 357.966 126.252L338.445 145.811L328.538 135.923L346.538 117.889C349.243 115.18 350.678 112.598 350.845 110.145C351.096 107.692 350.185 105.43 348.111 103.36C345.782 101.036 343.18 99.9596 340.304 100.132C337.471 100.261 334.575 101.808 331.617 104.771L314.505 121.916L304.598 112.029L322.598 93.9947C327.965 88.6183 328.489 83.7751 324.17 79.4653C321.884 77.1836 319.303 76.1287 316.428 76.3006C313.594 76.4302 310.698 77.9767 307.741 80.9401L290.628 98.0855L280.722 88.1982L314.82 54.0345L324.282 63.4781L320.353 67.4152C323.059 67.2434 325.703 67.685 328.284 68.7398C330.907 69.837 333.319 71.4841 335.521 73.6813C337.934 76.0897 339.628 78.7526 340.604 81.67C341.622 84.545 341.815 87.4842 341.183 90.4877C344.355 90.104 347.485 90.4817 350.573 91.6206C353.704 92.8019 356.54 94.6601 359.08 97.1953Z" fill="#D9D9D9"/>
<path d="M395.212 190.331L348.492 202.459L345.133 189.52L350.604 188.099C348.127 186.889 346.036 185.145 344.333 182.868C342.645 180.649 341.432 178.121 340.696 175.284C339.103 169.148 339.599 163.797 342.184 159.233C344.783 154.727 349.557 151.572 356.504 149.769L382.904 142.916L386.42 156.463L362.018 162.798C354.492 164.751 351.548 168.883 353.186 175.194C354.043 178.494 355.768 180.857 358.364 182.285C361.017 183.697 364.427 183.862 368.596 182.78L391.695 176.784L395.212 190.331Z" fill="#D9D9D9"/>
<path d="M383.724 312.118L325.097 289.599L330.309 276.031L354.346 285.264L364.576 258.631L340.539 249.398L345.751 235.83L404.377 258.349L399.166 271.917L376.05 263.038L365.82 289.671L388.935 298.55L383.724 312.118Z" fill="#D9D9D9"/>
<path d="M299.306 311.974C303.014 308.496 307.067 306.129 311.466 304.873C315.862 303.702 320.178 303.714 324.413 304.907C328.649 306.101 332.404 308.442 335.677 311.932C338.951 315.422 341.047 319.319 341.968 323.622C342.888 327.926 342.602 332.212 341.112 336.48C339.618 340.833 337.018 344.749 333.309 348.227C329.601 351.705 325.549 354.029 321.153 355.2C316.798 356.415 312.503 356.426 308.267 355.232C304.031 354.039 300.277 351.697 297.003 348.207C293.73 344.717 291.633 340.82 290.713 336.517C289.793 332.214 290.057 327.906 291.507 323.594C292.998 319.326 295.597 315.452 299.306 311.974ZM307.162 320.35C304.545 322.805 303.225 325.683 303.204 328.983C303.181 332.367 304.56 335.543 307.342 338.509C310.125 341.476 313.185 343.034 316.523 343.183C319.859 343.416 322.835 342.306 325.453 339.851C328.07 337.395 329.391 334.476 329.415 331.091C329.479 327.75 328.12 324.597 325.338 321.63C322.555 318.664 319.475 317.084 316.096 316.891C312.757 316.742 309.78 317.895 307.162 320.35Z" fill="#D9D9D9"/>
<path d="M249.369 368.057C243.379 368.307 239.354 365.752 237.295 360.392C235.73 356.316 236.054 352.571 238.267 349.158C240.48 345.745 244.63 342.87 250.716 340.533L274.754 331.301L292.059 376.361L269.027 385.207C263.387 387.373 258.579 388.034 254.603 387.19C250.649 386.402 247.964 384.166 246.548 380.481C245.691 378.247 245.516 376.04 246.023 373.859C246.497 371.755 247.612 369.821 249.369 368.057ZM272.973 362.451L263.09 366.247C258.512 368.005 256.845 370.504 258.088 373.742C259.311 376.925 262.211 377.637 266.79 375.878L276.673 372.083L272.973 362.451ZM255.215 348.993C250.413 350.837 248.644 353.406 249.91 356.701C250.574 358.431 251.615 359.473 253.032 359.826C254.47 360.235 256.39 359.978 258.791 359.056L270.014 354.746L266.186 344.779L255.215 348.993Z" fill="#D9D9D9"/>
<path d="M202.855 345.727C207.938 345.835 212.49 346.979 216.512 349.159C220.472 351.397 223.549 354.424 225.741 358.239C227.933 362.055 228.978 366.355 228.876 371.139C228.774 375.923 227.547 380.174 225.195 383.893C222.842 387.612 219.64 390.475 215.589 392.483C211.477 394.549 206.879 395.528 201.796 395.42C196.713 395.312 192.192 394.138 188.231 391.9C184.269 389.722 181.192 386.725 179 382.909C176.808 379.094 175.763 374.794 175.864 370.01C175.966 365.226 177.194 360.975 179.546 357.256C181.899 353.537 185.101 350.643 189.154 348.576C193.205 346.568 197.772 345.619 202.855 345.727ZM202.61 357.208C199.022 357.132 196.067 358.266 193.743 360.609C191.359 363.011 190.123 366.245 190.037 370.312C189.95 374.378 191.048 377.632 193.329 380.074C195.549 382.574 198.453 383.862 202.041 383.938C205.629 384.015 208.615 382.852 210.999 380.45C213.382 378.108 214.617 374.903 214.704 370.837C214.79 366.771 213.694 363.487 211.414 360.985C209.133 358.544 206.198 357.285 202.61 357.208Z" fill="#D9D9D9"/>
<path d="M151.061 332.663C155.808 334.645 159.682 337.398 162.683 340.92C165.606 344.475 167.418 348.44 168.118 352.816C168.763 357.169 168.163 361.553 166.319 365.969C164.475 370.384 161.778 373.892 158.228 376.493C154.623 379.071 150.541 380.542 145.981 380.906C141.343 381.303 136.651 380.509 131.904 378.527C127.213 376.567 123.544 373.868 120.897 370.429C118.171 367.021 116.769 363.162 116.69 358.851L128.955 357.654C129.567 362.707 132.053 366.143 136.413 367.965C139.78 369.371 143.028 369.431 146.158 368.146C149.288 366.86 151.648 364.313 153.239 360.505C154.829 356.697 154.982 353.228 153.696 350.098C152.411 346.968 150.085 344.7 146.718 343.294C142.303 341.45 138.111 342.097 134.142 345.236L126.407 335.588C129.483 332.724 133.202 331.037 137.564 330.525C141.871 329.991 146.37 330.703 151.061 332.663Z" fill="#D9D9D9"/>
<path d="M48.6924 305.216C44.9231 300.495 43.3398 295.636 43.9425 290.639C44.4611 285.633 47.5015 280.909 53.0637 276.468L74.6584 259.226L83.3912 270.164L63.4792 286.062C60.4878 288.451 58.7713 290.854 58.33 293.273C57.8045 295.683 58.4562 298.033 60.2848 300.323C62.3374 302.894 64.8022 304.255 67.6791 304.408C70.5093 304.597 73.5603 303.386 76.8322 300.773L95.7626 285.659L104.495 296.596L84.5834 312.495C78.6473 317.234 77.5825 321.988 81.3891 326.755C83.4043 329.28 85.8504 330.618 88.7273 330.77C91.5575 330.959 94.6086 329.748 97.8805 327.136L116.811 312.021L125.544 322.959L87.8231 353.076L79.4822 342.629L83.8292 339.158C81.1204 339.025 78.5429 338.289 76.0968 336.951C73.6134 335.566 71.4014 333.658 69.4608 331.228C67.3336 328.563 65.9491 325.727 65.3075 322.719C64.6191 319.747 64.7574 316.805 65.7223 313.892C62.5276 313.917 59.4598 313.19 56.5187 311.711C53.5404 310.185 50.9316 308.02 48.6924 305.216Z" fill="#D9D9D9"/>
<path d="M23.3085 208.498L71.1024 201.744L72.9728 214.981L67.3761 215.772C69.7 217.256 71.5791 219.225 73.0134 221.68C74.4393 224.076 75.3573 226.725 75.7673 229.627C76.6544 235.905 75.5553 241.165 72.4698 245.406C69.376 249.589 64.2757 252.182 57.1688 253.186L30.1626 257.003L28.2043 243.144L53.1672 239.617C60.8664 238.529 64.2598 234.757 63.3476 228.302C62.8706 224.926 61.4238 222.382 59.0072 220.669C56.5314 218.965 53.1614 218.415 48.8972 219.017L25.2668 222.356L23.3085 208.498Z" fill="#D9D9D9"/>
</svg>
