<svg width="146" height="146" viewBox="0 0 146 146" fill="none" xmlns="http://www.w3.org/2000/svg">
<path d="M131.035 80.7419C131.19 79.5897 131.579 78.5819 132.201 77.7186C132.822 76.8658 133.602 76.2335 134.54 75.8217C135.487 75.4219 136.505 75.2954 137.594 75.4421C138.683 75.5887 139.626 75.9794 140.423 76.6142C141.229 77.2609 141.818 78.0776 142.191 79.0642C142.563 80.0614 142.671 81.1361 142.515 82.2883C142.36 83.4406 141.972 84.4431 141.351 85.2958C140.73 86.1486 139.946 86.7802 138.997 87.1905C138.059 87.6023 137.045 87.7349 135.957 87.5882C134.868 87.4415 133.92 87.0448 133.114 86.3981C132.319 85.7528 131.734 84.9368 131.361 83.9502C130.989 82.9636 130.88 81.8942 131.035 80.7419ZM133.223 81.0367C133.135 81.6921 133.203 82.304 133.428 82.8724C133.663 83.4423 134.031 83.9115 134.53 84.2801C135.028 84.6593 135.62 84.8952 136.307 84.9877C136.994 85.0803 137.628 85.0096 138.209 84.7756C138.788 84.5523 139.261 84.1963 139.628 83.7076C140.006 83.2203 140.239 82.649 140.327 81.9936C140.416 81.3382 140.342 80.7255 140.107 80.1557C139.882 79.5873 139.521 79.1135 139.023 78.7343C138.524 78.3657 137.931 78.1351 137.243 78.0425C136.556 77.95 135.923 78.0154 135.344 78.2387C134.764 78.4727 134.285 78.8333 133.907 79.3205C133.54 79.8092 133.312 80.3813 133.223 81.0367Z" fill="white"/>
<path d="M127.72 94.2461C128.043 93.3874 128.508 92.6791 129.116 92.1213C129.731 91.5773 130.426 91.2286 131.201 91.0753C131.973 90.932 132.758 91.0103 133.557 91.3102C134.356 91.6101 134.999 92.0678 135.485 92.6834C135.968 93.309 136.257 94.0269 136.351 94.8371C136.452 95.6611 136.341 96.5024 136.019 97.3611C135.7 98.2099 135.242 98.8813 134.647 99.3755C134.057 99.8833 133.378 100.158 132.61 100.201L132.318 98.0227C133.214 97.8807 133.811 97.4153 134.107 96.6264C134.336 96.0173 134.325 95.4381 134.076 94.8887C133.827 94.3394 133.357 93.9354 132.668 93.6767C131.979 93.4181 131.36 93.4135 130.81 93.663C130.261 93.9125 129.872 94.3418 129.643 94.9509C129.343 95.7497 129.485 96.4925 130.071 97.1793L128.401 98.6205C127.871 98.0911 127.546 97.4393 127.427 96.6653C127.303 95.9013 127.401 95.0949 127.72 94.2461Z" fill="white"/>
<path d="M126.429 114.486C125.808 115.366 125.054 115.879 124.168 116.024C123.285 116.184 122.324 115.898 121.287 115.166L117.261 112.325L118.701 110.286L122.413 112.906C122.971 113.299 123.468 113.474 123.905 113.429C124.343 113.4 124.714 113.171 125.015 112.744C125.354 112.265 125.464 111.775 125.347 111.275C125.239 110.781 124.88 110.319 124.27 109.888L120.74 107.397L122.18 105.359L125.893 107.979C127 108.76 127.867 108.706 128.495 107.817C128.827 107.346 128.935 106.861 128.818 106.361C128.71 105.867 128.351 105.405 127.74 104.974L124.211 102.483L125.651 100.444L132.684 105.407L131.309 107.355L130.498 106.783C130.61 107.253 130.612 107.731 130.504 108.217C130.39 108.711 130.173 109.184 129.853 109.637C129.503 110.134 129.086 110.512 128.602 110.771C128.127 111.037 127.616 111.159 127.069 111.139C127.232 111.685 127.26 112.246 127.153 112.823C127.04 113.409 126.798 113.963 126.429 114.486Z" fill="white"/>
<path d="M112.663 127.67L107.206 121.013L109.05 119.502L109.679 120.269C109.684 119.3 110.14 118.443 111.048 117.7C111.675 117.186 112.359 116.86 113.101 116.721C113.834 116.589 114.558 116.665 115.273 116.948C115.988 117.231 116.626 117.715 117.187 118.4C117.749 119.084 118.098 119.805 118.235 120.561C118.372 121.317 118.304 122.042 118.031 122.735C117.749 123.434 117.295 124.041 116.668 124.555C115.818 125.251 114.934 125.527 114.016 125.383L114.594 126.088L112.663 127.67ZM112.012 119.557C111.525 119.956 111.256 120.452 111.205 121.046C111.16 121.648 111.368 122.229 111.828 122.79C112.288 123.351 112.814 123.665 113.406 123.731C114.005 123.805 114.548 123.643 115.035 123.245C115.53 122.839 115.8 122.335 115.845 121.733C115.896 121.14 115.692 120.563 115.232 120.002C114.772 119.441 114.242 119.123 113.643 119.048C113.051 118.982 112.507 119.152 112.012 119.557Z" fill="white"/>
<path d="M100.422 130.107C99.3663 130.28 98.599 129.914 98.1196 129.009C97.7551 128.321 97.7322 127.651 98.051 126.999C98.3698 126.348 99.0429 125.75 100.071 125.206L104.129 123.058L108.159 130.664L104.27 132.723C103.318 133.227 102.48 133.447 101.758 133.383C101.041 133.328 100.518 132.989 100.188 132.367C99.9887 131.99 99.9104 131.603 99.9536 131.206C99.9923 130.824 100.148 130.457 100.422 130.107ZM104.481 128.61L102.812 129.494C102.039 129.903 101.798 130.381 102.087 130.927C102.372 131.465 102.901 131.529 103.674 131.12L105.342 130.236L104.481 128.61ZM101.048 126.608C100.238 127.037 99.9795 127.529 100.274 128.086C100.429 128.378 100.635 128.54 100.894 128.572C101.157 128.614 101.492 128.527 101.897 128.313L103.792 127.31L102.901 125.627L101.048 126.608Z" fill="white"/>
<path d="M88.4688 138.721L86.0126 130.471L88.2976 129.791L88.5853 130.757C88.7855 130.308 89.0831 129.925 89.4781 129.607C89.863 129.292 90.3059 129.06 90.8069 128.911C91.8906 128.589 92.8473 128.644 93.6771 129.076C94.4966 129.511 95.089 130.342 95.4542 131.568L96.8421 136.23L94.4497 136.942L93.1669 132.633C92.7712 131.304 92.0162 130.805 90.9018 131.137C90.319 131.31 89.9086 131.632 89.6706 132.104C89.4356 132.585 89.4276 133.194 89.6468 133.93L90.8612 138.009L88.4688 138.721Z" fill="white"/>
<path d="M71.4626 140.589C70.3856 140.616 69.5245 140.317 68.8795 139.693C68.2241 139.08 67.8806 138.139 67.849 136.87L67.7266 131.943L70.2219 131.881L70.3347 136.424C70.3517 137.106 70.5082 137.609 70.8044 137.933C71.0901 138.267 71.4942 138.428 72.0167 138.415C72.6032 138.4 73.0623 138.197 73.394 137.804C73.7259 137.423 73.8826 136.858 73.8641 136.112L73.7568 131.793L76.252 131.731L76.3649 136.274C76.3985 137.628 76.9592 138.292 78.0469 138.265C78.6227 138.25 79.0764 138.047 79.4081 137.655C79.7401 137.273 79.8968 136.709 79.8782 135.963L79.7709 131.644L82.2661 131.582L82.48 140.187L80.0967 140.246L80.0721 139.255C79.7612 139.625 79.3789 139.912 78.9251 140.116C78.4607 140.319 77.9512 140.428 77.3967 140.442C76.7889 140.457 76.2367 140.348 75.7401 140.115C75.2437 139.892 74.8406 139.555 74.5306 139.104C74.1899 139.561 73.7559 139.919 73.2289 140.177C72.6911 140.436 72.1024 140.573 71.4626 140.589Z" fill="white"/>
<path d="M59.4467 130.031C60.7777 130.335 61.7186 130.862 62.2694 131.611C62.8098 132.358 62.9481 133.309 62.6842 134.463L61.5145 139.579L59.0968 139.027L59.7458 136.188C59.443 136.316 59.077 136.385 58.6477 136.397C58.208 136.406 57.7333 136.352 57.2238 136.235C56.1735 135.995 55.4114 135.548 54.9376 134.893C54.4637 134.237 54.3409 133.41 54.5692 132.412C54.814 131.341 55.371 130.604 56.2401 130.201C57.0988 129.795 58.1676 129.738 59.4467 130.031ZM59.0544 131.746C58.5344 131.628 58.102 131.677 57.757 131.893C57.4017 132.107 57.1693 132.454 57.06 132.932C56.9554 133.389 57.0137 133.78 57.235 134.104C57.446 134.426 57.8062 134.645 58.3157 134.762C58.6901 134.847 59.0383 134.856 59.3604 134.787C59.6825 134.718 59.95 134.577 60.163 134.363L60.32 133.677C60.4317 133.188 60.3793 132.771 60.1627 132.426C59.9334 132.089 59.5639 131.863 59.0544 131.746Z" fill="white"/>
<path d="M45.0744 124.762C45.8727 125.191 46.5026 125.743 46.9641 126.415C47.4112 127.092 47.6538 127.822 47.6919 128.606C47.73 129.39 47.5466 130.157 47.1418 130.909C46.737 131.66 46.1968 132.235 45.5211 132.634C44.8455 133.034 44.1045 133.229 43.2981 133.218C42.4773 133.212 41.6678 132.995 40.8695 132.565C40.0712 132.135 39.4485 131.582 39.0014 130.905C38.5493 130.237 38.3042 129.512 38.2661 128.728C38.228 127.944 38.4113 127.177 38.8161 126.425C39.2209 125.674 39.7612 125.099 40.4368 124.7C41.1125 124.3 41.856 124.101 42.6675 124.102C43.4738 124.112 44.2761 124.332 45.0744 124.762ZM44.1029 126.565C43.5394 126.261 42.978 126.201 42.4187 126.385C41.845 126.572 41.386 126.985 41.042 127.624C40.6979 128.262 40.6078 128.868 40.7716 129.441C40.9211 130.018 41.2775 130.458 41.841 130.762C42.4045 131.065 42.9731 131.123 43.5469 130.935C44.1155 130.757 44.5719 130.349 44.916 129.71C45.2601 129.072 45.3527 128.461 45.1939 127.879C45.0301 127.306 44.6664 126.868 44.1029 126.565Z" fill="white"/>
<path d="M24.0349 119.958C23.2511 119.219 22.8499 118.401 22.8313 117.504C22.7976 116.607 23.2163 115.697 24.0875 114.774L27.4697 111.19L29.2857 112.902L26.167 116.207C25.6984 116.703 25.4555 117.171 25.4381 117.609C25.4056 118.047 25.5795 118.446 25.9597 118.804C26.3865 119.207 26.8559 119.385 27.3678 119.34C27.8724 119.303 28.3809 119.013 28.8933 118.47L31.8583 115.328L33.6742 117.04L30.5555 120.345C29.6258 121.33 29.5567 122.196 30.3483 122.943C30.7673 123.338 31.2328 123.513 31.7447 123.468C32.2493 123.43 32.7578 123.14 33.2702 122.597L36.2352 119.455L38.0511 121.168L32.1432 127.428L30.4088 125.793L31.0896 125.071C30.6079 125.115 30.1343 125.05 29.6688 124.875C29.1956 124.693 28.7572 124.411 28.3536 124.031C27.9113 123.613 27.5958 123.147 27.4072 122.632C27.2113 122.125 27.1621 121.602 27.2596 121.064C26.696 121.148 26.136 121.096 25.5796 120.909C25.0154 120.714 24.5005 120.397 24.0349 119.958Z" fill="white"/>
<path d="M18.1167 105.151C17.9767 104.633 17.9718 104.169 18.1019 103.757C18.2263 103.337 18.482 103.003 18.869 102.757C19.328 102.465 19.8332 102.365 20.3847 102.457C20.9272 102.554 21.4676 102.817 22.006 103.246C22.5444 103.675 23.0342 104.235 23.4752 104.928C23.8361 105.495 24.1327 106.09 24.3651 106.714C24.5975 107.337 24.7456 107.957 24.8094 108.574L22.977 108.943C22.8592 107.943 22.5053 106.98 21.9153 106.053C21.6003 105.558 21.282 105.217 20.9604 105.03C20.6241 104.839 20.321 104.83 20.0509 105.001C19.8169 105.15 19.7044 105.361 19.7134 105.633C19.7135 105.911 19.8337 106.239 20.0743 106.617L21.0194 108.102L19.7099 108.935L18.8851 107.639C18.6502 107.27 18.4113 107.024 18.1683 106.901C17.9253 106.777 17.6912 106.787 17.4662 106.93C17.2322 107.079 17.1324 107.319 17.1668 107.651C17.1954 107.974 17.3558 108.365 17.6479 108.824C18.0947 109.526 18.7481 110.185 19.608 110.801L18.4765 112.242C17.394 111.514 16.5491 110.674 15.942 109.72C15.5238 109.063 15.2325 108.427 15.0681 107.811C14.8978 107.186 14.8757 106.625 15.0017 106.127C15.1187 105.636 15.3842 105.258 15.7982 104.995C16.1403 104.777 16.5166 104.683 16.9274 104.713C17.3291 104.748 17.7256 104.894 18.1167 105.151Z" fill="white"/>
<path d="M18.501 95.2894C18.9793 96.5682 19.0532 97.6337 18.7229 98.486C18.3925 99.3383 17.6728 99.9716 16.5637 100.386L11.6478 102.223L10.779 99.9006L13.5067 98.8811C13.2609 98.7111 13.0139 98.4618 12.7658 98.1332C12.5139 97.7946 12.2982 97.3856 12.1189 96.906C11.7489 95.9169 11.7091 95.0493 11.9994 94.3031C12.2898 93.5569 12.9145 93.0046 13.8737 92.6461C14.8929 92.2652 15.8111 92.3148 16.6285 92.7951C17.4359 93.279 18.06 94.1105 18.501 95.2894ZM8.4585 93.6964L7.58409 91.3585L15.6473 88.3449L16.5217 90.6828L8.4585 93.6964ZM16.8523 95.9055C16.673 95.426 16.3967 95.1136 16.0235 94.9684C15.6503 94.8232 15.2389 94.8346 14.7893 95.0027C14.3697 95.1595 14.0835 95.4145 13.9309 95.7676C13.7645 96.1145 13.771 96.5277 13.9504 97.0072C14.0774 97.3469 14.2595 97.6205 14.4965 97.828C14.7198 98.0292 14.9744 98.1618 15.2603 98.2258L15.9197 97.9793C16.3893 97.8038 16.7104 97.5357 16.8831 97.1751C17.0457 96.8183 17.0355 96.3951 16.8523 95.9055Z" fill="white"/>
<path d="M9.78387 79.5699C9.98488 78.5197 10.5927 77.9253 11.6073 77.7868C12.3788 77.6815 13.0156 77.8906 13.5178 78.4141C14.02 78.9376 14.3497 79.7754 14.5071 80.9274L15.1288 85.4771L6.59995 86.6416L6.00427 82.2821C5.85842 81.2147 5.93985 80.3531 6.24858 79.6973C6.54674 79.043 7.04458 78.6682 7.74211 78.5729C8.16485 78.5152 8.5552 78.5749 8.91315 78.7521C9.25909 78.9202 9.54933 79.1928 9.78387 79.5699ZM9.79369 83.8963L9.53809 82.0257C9.41967 81.1591 9.05398 80.7676 8.441 80.8513C7.83859 80.9336 7.59659 81.408 7.715 82.2746L7.97061 84.1452L9.79369 83.8963ZM12.8549 81.3629C12.7307 80.454 12.3568 80.0421 11.7333 80.1273C11.4057 80.172 11.1823 80.3102 11.0632 80.5417C10.9336 80.7747 10.8998 81.1185 10.9619 81.5729L11.2522 83.6972L13.1387 83.4396L12.8549 81.3629Z" fill="white"/>
<path d="M14.9649 65.2581C14.8095 66.4103 14.4208 67.4181 13.7985 68.2814C13.1777 69.1342 12.3982 69.7665 11.4601 70.1783C10.5129 70.5781 9.49487 70.7046 8.40604 70.5579C7.31721 70.4113 6.37428 70.0206 5.57727 69.3858C4.77111 68.7391 4.1816 67.9224 3.80873 66.9358C3.43728 65.9386 3.32922 64.8639 3.48455 63.7117C3.63988 62.5594 4.02795 61.5569 4.64877 60.7042C5.26959 59.8514 6.05434 59.2198 7.00299 58.8095C7.94108 58.3977 8.95454 58.2651 10.0434 58.4118C11.1322 58.5585 12.0797 58.9552 12.8859 59.6019C13.6815 60.2472 14.2657 61.0632 14.6385 62.0498C15.0114 63.0364 15.1202 64.1058 14.9649 65.2581ZM12.7766 64.9633C12.865 64.3079 12.7968 63.696 12.572 63.1276C12.3367 62.5577 11.9695 62.0885 11.4702 61.7199C10.9724 61.3407 10.38 61.1048 9.69282 61.0123C9.0057 60.9197 8.3719 60.9904 7.79145 61.2244C7.21242 61.4477 6.73928 61.8037 6.37204 62.2924C5.99422 62.7797 5.76114 63.351 5.67279 64.0064C5.58444 64.6618 5.65792 65.2745 5.89323 65.8443C6.11798 66.4127 6.47925 66.8865 6.97705 67.2657C7.47629 67.6343 8.06946 67.8649 8.75659 67.9575C9.44372 68.05 10.0768 67.9846 10.6558 67.7613C11.2363 67.5273 11.7154 67.1667 12.0932 66.6795C12.4605 66.1908 12.6883 65.6187 12.7766 64.9633Z" fill="white"/>
<path d="M18.28 51.7539C17.9574 52.6126 17.492 53.3209 16.8836 53.8787C16.2691 54.4227 15.5741 54.7714 14.7986 54.9247C14.027 55.068 13.2417 54.9897 12.4428 54.6898C11.6439 54.3899 11.0011 53.9322 10.5145 53.3166C10.0317 52.691 9.74301 51.9731 9.64856 51.1629C9.54787 50.3389 9.65881 49.4976 9.9814 48.6389C10.3002 47.7901 10.7576 47.1187 11.3534 46.6245C11.943 46.1167 12.6217 45.8416 13.3896 45.7995L13.6824 47.9773C12.7859 48.1193 12.1895 48.5847 11.8931 49.3736C11.6643 49.9827 11.6746 50.5619 11.924 51.1113C12.1735 51.6606 12.6427 52.0646 13.3318 52.3233C14.0208 52.5819 14.6401 52.5865 15.1896 52.337C15.7391 52.0875 16.1282 51.6582 16.357 51.0491C16.6571 50.2503 16.5145 49.5075 15.9293 48.8207L17.5988 47.3795C18.1291 47.9089 18.454 48.5607 18.5735 49.3347C18.6967 50.0987 18.5989 50.9051 18.28 51.7539Z" fill="white"/>
<path d="M19.5708 31.5138C20.1922 30.6337 20.9459 30.1212 21.8319 29.9761C22.7153 29.8162 23.6755 30.1021 24.7126 30.834L28.7391 33.6753L27.2993 35.7141L23.5866 33.0942C23.0288 32.7006 22.5318 32.5262 22.0955 32.5708C21.6566 32.6005 21.2864 32.8288 20.9849 33.2558C20.6465 33.735 20.5357 34.2247 20.6526 34.7249C20.7607 35.219 21.1198 35.6813 21.7299 36.1118L25.2595 38.6025L23.8197 40.6414L20.107 38.0215C19.0002 37.2405 18.133 37.2943 17.5054 38.183C17.1731 38.6535 17.0654 39.1389 17.1822 39.6391C17.2904 40.1332 17.6495 40.5955 18.2595 41.026L21.7892 43.5167L20.3494 45.5556L13.3162 40.5925L14.6914 38.6452L15.5019 39.2171C15.3902 38.7466 15.3882 38.2687 15.4959 37.7833C15.6098 37.2893 15.8267 36.8157 16.1466 36.3626C16.4973 35.866 16.9145 35.488 17.3979 35.2286C17.8727 34.9631 18.3836 34.8406 18.9307 34.8611C18.7677 34.3152 18.7398 33.7538 18.847 33.1767C18.9603 32.5909 19.2016 32.0366 19.5708 31.5138Z" fill="white"/>
<path d="M33.3369 18.3302L38.7945 24.987L36.9503 26.4978L36.3214 25.7307C36.3162 26.7002 35.8598 27.5567 34.9521 28.3002C34.325 28.814 33.6407 29.1402 32.8992 29.2788C32.1659 29.4107 31.4419 29.3351 30.727 29.052C30.0122 28.7689 29.3741 28.285 28.8128 27.6004C28.2515 26.9157 27.9022 26.1953 27.7649 25.439C27.6277 24.6827 27.6958 23.9582 27.9692 23.2654C28.2508 22.5658 28.7052 21.9592 29.3323 21.4455C30.1822 20.7492 31.0662 20.4731 31.9843 20.6173L31.4061 19.912L33.3369 18.3302ZM33.9878 26.4427C34.4747 26.0439 34.7437 25.5477 34.795 24.9541C34.8396 24.3523 34.6319 23.7709 34.172 23.21C33.7122 22.649 33.1861 22.3354 32.5938 22.2691C31.9947 22.1945 31.4517 22.3566 30.9649 22.7555C30.4698 23.1611 30.2 23.6648 30.1555 24.2666C30.1042 24.8602 30.3085 25.4374 30.7684 25.9983C31.2282 26.5593 31.7577 26.877 32.3568 26.9516C32.9491 27.0179 33.4928 26.8483 33.9878 26.4427Z" fill="white"/>
<path d="M45.5783 15.8926C46.6337 15.7201 47.401 16.0863 47.8804 16.9912C48.2449 17.6793 48.2678 18.3491 47.949 19.0006C47.6302 19.6521 46.9571 20.2498 45.9295 20.7938L41.871 22.9421L37.8415 15.3355L41.7302 13.277C42.6824 12.773 43.5195 12.5531 44.2416 12.6174C44.9587 12.6723 45.4821 13.0108 45.8116 13.6329C46.0113 14.0099 46.0896 14.3969 46.0464 14.7939C46.0077 15.1765 45.8516 15.5427 45.5783 15.8926ZM41.5189 17.3897L43.1875 16.5064C43.9606 16.0972 44.2023 15.6193 43.9127 15.0726C43.628 14.5353 43.0992 14.4713 42.3262 14.8805L40.6575 15.7638L41.5189 17.3897ZM44.9517 19.3924C45.7625 18.9632 46.0205 18.4706 45.7259 17.9144C45.5711 17.6222 45.3645 17.4601 45.1061 17.4279C44.8426 17.3863 44.5082 17.4728 44.1028 17.6874L42.208 18.6905L43.0993 20.373L44.9517 19.3924Z" fill="white"/>
<path d="M57.5312 7.27881L59.9874 15.529L57.7024 16.2087L57.4147 15.2426C57.2145 15.6917 56.9169 16.0751 56.5219 16.393C56.137 16.7078 55.6941 16.9397 55.1931 17.0887C54.1094 17.4111 53.1527 17.3563 52.3229 16.9243C51.5034 16.4893 50.911 15.6584 50.5458 14.4316L49.1579 9.76979L51.5503 9.05808L52.8331 13.3672C53.2288 14.6962 53.9838 15.1949 55.0982 14.8634C55.681 14.6901 56.0914 14.3677 56.3294 13.8962C56.5644 13.4145 56.5724 12.8057 56.3532 12.0696L55.1388 7.99052L57.5312 7.27881Z" fill="white"/>
<path d="M74.5374 5.41095C75.6144 5.38419 76.4755 5.68289 77.1205 6.30706C77.7759 6.9203 78.1194 7.86139 78.151 9.13033L78.2734 14.0568L75.7781 14.1188L75.6653 9.57622C75.6483 8.89376 75.4918 8.39083 75.1956 8.06742C74.9099 7.73308 74.5058 7.5724 73.9833 7.58538C73.3968 7.59996 72.9377 7.80342 72.606 8.19578C72.2741 8.57748 72.1174 9.14155 72.1359 9.88798L72.2432 14.2067L69.748 14.2687L69.6351 9.72605C69.6015 8.3718 69.0408 7.70819 67.9531 7.73522C67.3773 7.74953 66.9236 7.95286 66.5919 8.34522C66.2599 8.72692 66.1032 9.29099 66.1218 10.0374L66.2291 14.3561L63.7339 14.4181L63.52 5.81275L65.9033 5.75353L65.9279 6.74522C66.2388 6.37472 66.6211 6.0878 67.0749 5.88446C67.5393 5.68087 68.0488 5.57218 68.6033 5.5584C69.2111 5.5433 69.7633 5.65228 70.2599 5.88535C70.7563 6.10775 71.1594 6.44451 71.4694 6.89562C71.8101 6.43901 72.2441 6.08146 72.7711 5.82295C73.3089 5.56418 73.8976 5.42684 74.5374 5.41095Z" fill="white"/>
<path d="M86.5533 15.9693C85.2223 15.6652 84.2814 15.1384 83.7306 14.3889C83.1902 13.6418 83.0519 12.6911 83.3158 11.5369L84.4855 6.42092L86.9032 6.97328L86.2542 9.81203C86.557 9.68426 86.923 9.6147 87.3523 9.60337C87.792 9.59442 88.2667 9.64815 88.7762 9.76456C89.8265 10.0045 90.5886 10.4522 91.0624 11.1075C91.5363 11.7628 91.6591 12.5896 91.4308 13.5879C91.186 14.6589 90.629 15.396 89.7599 15.7992C88.9012 16.2049 87.8324 16.2615 86.5533 15.9693ZM86.9456 14.2536C87.4656 14.3724 87.898 14.3235 88.243 14.1069C88.5983 13.8926 88.8307 13.5464 88.94 13.068C89.0446 12.6105 88.9863 12.2197 88.765 11.8956C88.554 11.5739 88.1938 11.3548 87.6843 11.2384C87.3099 11.1528 86.9617 11.1444 86.6396 11.2131C86.3175 11.2817 86.05 11.423 85.837 11.6369L85.68 12.3232C85.5683 12.812 85.6207 13.2288 85.8373 13.5737C86.0666 13.9105 86.4361 14.1372 86.9456 14.2536Z" fill="white"/>
<path d="M100.926 21.2384C100.127 20.8085 99.4974 20.2573 99.0359 19.5848C98.5888 18.9079 98.3462 18.1776 98.3081 17.3938C98.27 16.6101 98.4534 15.8426 98.8582 15.0914C99.263 14.3402 99.8032 13.7649 100.479 13.3655C101.155 12.9661 101.896 12.7715 102.702 12.7817C103.523 12.7875 104.332 13.0054 105.131 13.4352C105.929 13.8651 106.551 14.4184 106.999 15.0953C107.451 15.7628 107.696 16.4884 107.734 17.2721C107.772 18.0559 107.589 18.8234 107.184 19.5746C106.779 20.3258 106.239 20.9011 105.563 21.3005C104.887 21.6999 104.144 21.8992 103.333 21.8984C102.526 21.8882 101.724 21.6682 100.926 21.2384ZM101.897 19.4355C102.461 19.7389 103.022 19.7989 103.581 19.6155C104.155 19.4277 104.614 19.0146 104.958 18.376C105.302 17.7375 105.392 17.1318 105.228 16.559C105.079 15.9818 104.722 15.5415 104.159 15.2381C103.595 14.9347 103.027 14.8768 102.453 15.0646C101.884 15.243 101.428 15.6514 101.084 16.29C100.74 16.9285 100.647 17.5389 100.806 18.1211C100.97 18.6939 101.334 19.132 101.897 19.4355Z" fill="white"/>
<path d="M121.965 26.0419C122.749 26.781 123.15 27.5992 123.169 28.4964C123.202 29.3932 122.784 30.3032 121.913 31.2263L118.53 34.8104L116.714 33.098L119.833 29.7932C120.302 29.2967 120.545 28.8294 120.562 28.3914C120.594 27.9528 120.421 27.5543 120.04 27.1957C119.613 26.7932 119.144 26.6145 118.632 26.6596C118.128 26.697 117.619 26.9872 117.107 27.5302L114.142 30.6721L112.326 28.9597L115.444 25.6549C116.374 24.6697 116.443 23.8038 115.652 23.0574C115.233 22.6622 114.767 22.4872 114.255 22.5323C113.751 22.5697 113.242 22.8599 112.73 23.4029L109.765 26.5448L107.949 24.8324L113.857 18.5719L115.591 20.2074L114.91 20.9289C115.392 20.8847 115.866 20.9501 116.331 21.1251C116.804 21.3075 117.243 21.5889 117.646 21.9695C118.089 22.3866 118.404 22.8527 118.593 23.3677C118.789 23.875 118.838 24.3979 118.74 24.9364C119.304 24.8521 119.864 24.9036 120.42 25.0911C120.985 25.2859 121.499 25.6028 121.965 26.0419Z" fill="white"/>
<path d="M127.883 40.849C128.023 41.3668 128.028 41.8314 127.898 42.2428C127.774 42.6633 127.518 42.9966 127.131 43.2427C126.672 43.5347 126.167 43.6348 125.615 43.5432C125.073 43.4458 124.532 43.1827 123.994 42.754C123.456 42.3254 122.966 41.7646 122.525 41.0717C122.164 40.5048 121.867 39.9097 121.635 39.2864C121.403 38.6631 121.254 38.043 121.191 37.4263L123.023 37.0572C123.141 38.0567 123.495 39.0199 124.085 39.9468C124.4 40.4417 124.718 40.7828 125.04 40.9702C125.376 41.1608 125.679 41.1702 125.949 40.9985C126.183 40.8496 126.296 40.639 126.287 40.3666C126.287 40.0885 126.166 39.7605 125.926 39.3826L124.981 37.8979L126.29 37.0649L127.115 38.3607C127.35 38.7296 127.589 38.9758 127.832 39.0994C128.075 39.2229 128.309 39.2131 128.534 39.07C128.768 38.9212 128.868 38.6807 128.833 38.3486C128.805 38.0255 128.644 37.6345 128.352 37.1756C127.905 36.4737 127.252 35.8148 126.392 35.1987L127.524 33.7584C128.606 34.4857 129.451 35.3263 130.058 36.2801C130.476 36.937 130.767 37.5734 130.932 38.1893C131.102 38.8143 131.124 39.3754 130.998 39.8727C130.881 40.3643 130.616 40.7418 130.202 41.0051C129.86 41.2227 129.483 41.3167 129.073 41.2872C128.671 41.252 128.274 41.1059 127.883 40.849Z" fill="white"/>
<path d="M127.499 50.7106C127.021 49.4318 126.947 48.3663 127.277 47.514C127.607 46.6617 128.327 46.0284 129.436 45.6138L134.352 43.7766L135.221 46.0994L132.493 47.1189C132.739 47.2889 132.986 47.5382 133.234 47.8668C133.486 48.2054 133.702 48.6144 133.881 49.094C134.251 50.0831 134.291 50.9507 134.001 51.6969C133.71 52.4431 133.085 52.9954 132.126 53.3539C131.107 53.7348 130.189 53.6852 129.372 53.2049C128.564 52.721 127.94 51.8895 127.499 50.7106ZM137.542 52.3036L138.416 54.6415L130.353 57.6551L129.478 55.3172L137.542 52.3036ZM129.148 50.0945C129.327 50.574 129.603 50.8864 129.976 51.0316C130.35 51.1768 130.761 51.1654 131.211 50.9973C131.63 50.8405 131.916 50.5855 132.069 50.2324C132.235 49.8855 132.229 49.4723 132.05 48.9928C131.923 48.6531 131.741 48.3795 131.503 48.172C131.28 47.9708 131.026 47.8382 130.74 47.7742L130.08 48.0207C129.611 48.1962 129.29 48.4643 129.117 48.8249C128.954 49.1817 128.965 49.6049 129.148 50.0945Z" fill="white"/>
<path d="M136.216 66.4301C136.015 67.4803 135.407 68.0747 134.393 68.2132C133.621 68.3185 132.984 68.1094 132.482 67.5859C131.98 67.0624 131.65 66.2246 131.493 65.0726L130.871 60.5229L139.4 59.3584L139.996 63.7179C140.142 64.7853 140.06 65.6469 139.751 66.3027C139.453 66.957 138.955 67.3318 138.258 67.4271C137.835 67.4848 137.445 67.4251 137.087 67.2479C136.741 67.0798 136.451 66.8072 136.216 66.4301ZM136.206 62.1037L136.462 63.9743C136.58 64.8409 136.946 65.2324 137.559 65.1487C138.161 65.0664 138.403 64.592 138.285 63.7254L138.029 61.8548L136.206 62.1037ZM133.145 64.6371C133.269 65.546 133.643 65.9579 134.267 65.8727C134.594 65.828 134.818 65.6898 134.937 65.4583C135.066 65.2253 135.1 64.8815 135.038 64.4271L134.748 62.3028L132.861 62.5604L133.145 64.6371Z" fill="white"/>
</svg>
