<svg width="133" height="24" viewBox="0 0 133 24" fill="none" xmlns="http://www.w3.org/2000/svg">
<g clip-path="url(#clip0_1306_1698)">
<path d="M0 11.6406C0 6.38872 0 3.76312 1.64978 2.13156C3.29956 0.5 5.95448 0.5 11.265 0.5H11.9918C17.3024 0.5 19.9573 0.5 21.607 2.13156C23.2568 3.76312 23.2568 6.38872 23.2568 11.6406V12.3594C23.2568 17.6113 23.2568 20.2369 21.607 21.8684C19.9573 23.5 17.3024 23.5 11.9918 23.5H11.265C5.95448 23.5 3.29956 23.5 1.64978 21.8684C0 20.2369 0 17.6113 0 12.3594V11.6406Z" fill="#2787F5"/>
<path fill-rule="evenodd" clip-rule="evenodd" d="M19.1844 8.32C19.2948 7.95559 19.1844 7.6875 18.6575 7.6875H16.9161C16.4728 7.6875 16.2693 7.91894 16.1588 8.17409C16.1588 8.17409 15.2729 10.3081 14.0184 11.6938C13.6129 12.0949 13.4283 12.2228 13.2074 12.2228C13.0962 12.2228 12.9363 12.0949 12.9363 11.7305V8.32C12.9363 7.88228 12.8076 7.6875 12.4384 7.6875H9.70212C9.42594 7.6875 9.25878 7.89091 9.25878 8.08281C9.25878 8.49825 9.88672 8.59312 9.9514 9.76037V12.2954C9.9514 12.851 9.84965 12.9516 9.62799 12.9516C9.03784 12.9516 7.60174 10.809 6.74995 8.35666C6.58352 7.88012 6.41636 7.6875 5.97158 7.6875H4.2295C3.73238 7.6875 3.63281 7.91894 3.63281 8.17409C3.63281 8.62978 4.22295 10.891 6.38148 13.8817C7.82049 15.9244 9.8482 17.0312 11.692 17.0312C12.7989 17.0312 12.9363 16.7854 12.9363 16.3621V14.8175C12.9363 14.3259 13.0409 14.2281 13.3912 14.2281C13.65 14.2281 14.0926 14.3553 15.1253 15.34C16.3063 16.508 16.5011 17.0312 17.1654 17.0312H18.9067C19.4046 17.0312 19.6531 16.7854 19.51 16.3003C19.353 15.8166 18.789 15.1143 18.0411 14.2828C17.6349 13.8084 17.0266 13.2981 16.842 13.0429C16.584 12.7152 16.6574 12.5685 16.842 12.2774C16.842 12.2774 18.9634 9.32338 19.1851 8.32H19.1844Z" fill="white"/>
<path d="M39.7136 11.8029C40.5952 11.3961 41.1628 10.7176 41.1628 9.67251C41.1628 8.08407 39.6947 6.96066 37.5798 6.96066H32.7031V17.0311H37.7949C39.9876 17.0311 41.5153 15.8502 41.5153 14.2423C41.5207 13.698 41.3483 13.1664 41.0237 12.7267C40.699 12.2871 40.2396 11.9628 39.7136 11.8022V11.8029ZM34.9561 8.80066H37.5798C38.3633 8.80066 38.9112 9.2657 38.9112 9.90466C38.9112 10.5444 38.3633 10.9893 37.5798 10.9893H34.9561V8.80066ZM37.7956 15.1918H34.9561V12.7322H37.7956C38.6765 12.7322 39.2637 13.2354 39.2637 13.9714C39.2637 14.7074 38.6765 15.1918 37.7956 15.1918ZM49.8907 17.0311H52.8472L48.1667 11.8014L52.4554 6.95995H49.7736L46.3651 10.8721H45.8171V6.96138H43.5655V17.0311H45.8171V13.0226H46.3658L49.8907 17.0311ZM58.5952 17.2244C61.7872 17.2244 64.0395 15.0552 64.0395 11.9955C64.0395 8.93579 61.7872 6.7666 58.596 6.7666C55.404 6.7666 53.1517 8.93579 53.1517 11.9955C53.1517 15.0552 55.404 17.2244 58.5952 17.2244ZM58.5952 15.1904C56.7551 15.1904 55.5014 13.893 55.5014 11.9955C55.5014 10.098 56.7551 8.79995 58.5952 8.79995C60.4362 8.79995 61.6899 10.0973 61.6899 11.9955C61.6899 13.893 60.4362 15.1911 58.5952 15.1911V15.1904ZM72.8117 6.96066V10.9303H68.249V6.96066H65.9975V17.0311H68.249V12.9644H72.8117V17.0311H75.064V6.96138L72.8117 6.96066ZM80.1514 17.0311H82.403V8.99545H85.9278V6.96138H76.6266V8.99545H80.1514V17.0311ZM91.2617 6.76732C89.2834 6.76732 87.5406 7.77429 87.0311 9.51726L89.1075 9.86585C89.4207 9.24629 90.1257 8.66554 91.1439 8.66554C92.3773 8.66554 93.1019 9.53666 93.2 10.8534H91.0066C88.0108 10.8534 86.5223 12.1508 86.5223 14.0102C86.5223 15.889 87.9912 17.2251 90.0668 17.2251C91.7312 17.2251 92.8475 16.2764 93.3373 15.4434L93.8068 17.0318H95.4719V11.3767C95.4719 8.45207 93.8657 6.76732 91.2617 6.76732ZM90.5952 15.3463C89.4992 15.3463 88.7943 14.785 88.7943 13.9131C88.7943 13.139 89.3619 12.5964 91.085 12.5964H93.2196C93.2196 14.2423 92.1621 15.3463 90.5952 15.3463ZM104.24 17.0318H107.197L102.517 11.8022L106.805 6.96066H104.122L100.715 10.8728H100.167V6.96138H97.9146V17.0311H100.167V13.0226H100.715L104.24 17.0318ZM111.017 17.0318H113.268V8.99401H116.793V6.95995H107.492V8.99401H111.017V17.0318ZM127.962 11.8798C127.962 8.97532 125.769 6.76732 122.675 6.76732C119.581 6.76732 117.388 8.95591 117.388 11.9962C117.388 15.0365 119.581 17.2251 122.675 17.2251C124.79 17.2251 126.787 16.2376 127.551 14.3199L125.436 13.9714C124.947 14.6879 124.007 15.1918 122.812 15.1918C121.089 15.1918 119.953 14.146 119.737 12.5971H127.923C127.943 12.3836 127.962 12.1515 127.962 11.8798ZM122.675 8.70363C124.085 8.70363 125.143 9.59488 125.515 10.8534H119.875C120.247 9.55607 121.304 8.70435 122.675 8.70435V8.70363Z" fill="#222222"/>
</g>
<defs>
<clipPath id="clip0_1306_1698">
<rect width="133" height="23" fill="white" transform="translate(0 0.5)"/>
</clipPath>
</defs>
</svg>
